<svg version="1.2" baseProfile="tiny-ps" xmlns="http://www.w3.org/2000/svg" viewBox="0 0 500 500" width="500" height="500">
	<title>Calendar-amico-svg</title>
	<style>
		tspan { white-space:pre }
		.shp0 { opacity: 0.502;fill: #ebebeb } 
		.shp1 { fill: #e0e0e0 } 
		.shp2 { fill: #f9544d } 
		.shp3 { opacity: 0.102;fill: #000000 } 
		.shp4 { fill: #ffffff } 
		.shp5 { fill: #ff687c } 
		.shp6 { fill: #f0f0f0 } 
		.shp7 { fill: #e6e6e6 } 
		.shp8 { fill: #fafafa } 
		.shp9 { opacity: 0.2;fill: #000000 } 
		.shp10 { opacity: 0.4;fill: #ffffff } 
		.shp11 { fill: #ebebeb } 
		.shp12 { fill: #f5f5f5 } 
		.shp13 { fill: #455a64 } 
		.shp14 { fill: #e93d39 } 
		.shp15 { fill: #ba68c8 } 
		.shp16 { fill: #37474f } 
		.shp17 { fill: #ffa8a7 } 
		.shp18 { fill: #263238 } 
		.shp19 { fill: #f28f8f } 
	</style>
	<g id="freepik--Floor--inject-104">
		<path id="freepik--SUELO--inject-104" class="shp0" d="M124.4 411.34C204.46 449.49 334.26 449.49 414.32 411.34C494.38 373.19 494.37 311.34 414.32 273.16C334.27 234.98 204.46 235 124.4 273.16C44.34 311.32 44.35 373.18 124.4 411.34Z" />
	</g>
	<g id="freepik--Shadows--inject-104">
		<path id="freepik--Shadow--inject-104" class="shp1" d="M383.84 339.95C353.25 339.95 328.52 328.16 328.52 313.58C328.52 299 353.25 287.21 383.84 287.21C414.43 287.21 439.16 299 439.16 313.58C439.16 328.16 414.43 339.95 383.84 339.95Z" />
		<path id="freepik--shadow--inject-104" class="shp1" d="M300.18 418.55C285.4 425.6 261.44 425.6 246.66 418.55C231.88 411.5 231.88 400.09 246.66 393.04C261.44 385.99 285.4 386.04 300.18 393.04C314.96 400.04 315 411.51 300.18 418.55Z" />
	</g>
	<g id="freepik--Plants--inject-104">
		<g id="freepik--plants--inject-104">
			<path id="Layer" class="shp2" d="M101.4 328.59L109.53 323.9C109.53 323.9 113.82 304.77 107.43 280.47C101.04 256.17 82.61 238 73 241.81C63.39 245.62 63.64 252.81 68.94 260.1C73.34 266.1 87.61 280.7 94.47 297.52C95.49 299.98 96.4 302.49 97.2 305.03C98.01 307.58 98.7 310.15 99.28 312.75C99.86 315.36 100.33 317.98 100.68 320.63C101.04 323.27 101.28 325.93 101.4 328.59Z" />
			<path id="Layer" class="shp3" d="M101.4 328.59L109.53 323.9C109.53 323.9 113.82 304.77 107.43 280.47C101.04 256.17 82.61 238 73 241.81C63.39 245.62 63.64 252.81 68.94 260.1C73.34 266.1 87.61 280.7 94.47 297.52C95.49 299.98 96.4 302.49 97.2 305.03C98.01 307.58 98.7 310.15 99.28 312.75C99.86 315.36 100.33 317.98 100.68 320.63C101.04 323.27 101.28 325.93 101.4 328.59Z" />
			<path id="Layer" class="shp4" d="M105.73 326.59L105.66 326.59C105.6 326.58 105.53 326.56 105.48 326.52C105.42 326.49 105.37 326.45 105.34 326.4C105.3 326.34 105.27 326.28 105.25 326.22C105.24 326.16 105.23 326.09 105.24 326.03C110.79 286.03 86 253.69 74.72 246.94C74.59 246.88 74.49 246.77 74.44 246.63C74.4 246.5 74.42 246.35 74.49 246.22C74.56 246.1 74.69 246.01 74.83 245.99C74.97 245.96 75.12 246 75.23 246.09C86.68 252.93 111.85 285.7 106.23 326.17C106.22 326.23 106.2 326.28 106.17 326.34C106.14 326.39 106.1 326.43 106.06 326.47C106.01 326.51 105.96 326.54 105.9 326.56C105.85 326.58 105.79 326.59 105.73 326.59L105.73 326.59Z" />
			<path id="Layer" class="shp2" d="M101.4 328.59L89.22 335.59C88.59 335.27 87.94 334.99 87.28 334.73C86.62 334.47 85.94 334.24 85.26 334.05C84.58 333.85 83.89 333.69 83.19 333.55C82.5 333.42 81.8 333.32 81.09 333.25C75.91 332.6 72.46 327.6 72.97 323.87C73.31 321.35 74.12 318.48 73.73 315.93C73.39 313.65 71.18 311.6 69.12 310.8C68.68 310.66 68.24 310.54 67.79 310.44C67.35 310.34 66.89 310.26 66.44 310.2C65.99 310.13 65.53 310.08 65.07 310.06C64.62 310.03 64.16 310.02 63.7 310.03C60.77 309.89 57.7 309.56 55.23 308.03C52.76 306.5 50.94 303.44 51.74 300.61C51.87 300.25 52.03 299.89 52.2 299.54C52.38 299.2 52.58 298.86 52.79 298.54C53 298.21 53.24 297.9 53.49 297.6C53.74 297.31 54.01 297.03 54.29 296.76C54.57 296.49 54.84 296.21 55.1 295.92C55.35 295.63 55.6 295.32 55.82 295.01C56.05 294.69 56.26 294.37 56.46 294.03C56.66 293.7 56.84 293.35 57 293C58.08 290.18 56.17 288.38 53.9 287.07C45.9 282.47 42.3 278.84 45.18 275.36C48.06 271.88 55.97 270.36 64.08 274.62C72.19 278.88 78.92 274.31 84.27 275.21C92.65 276.61 93.14 282.53 92.1 287.67C91.06 292.81 101.43 295 104 301.17C105.93 305.65 107.51 320.37 101.4 328.59Z" />
			<path id="Layer" class="shp4" d="M97.34 331.43C97.28 331.43 97.21 331.42 97.15 331.39C97.09 331.37 97.04 331.34 96.99 331.29C96.95 331.25 96.91 331.19 96.88 331.14C96.86 331.08 96.84 331.01 96.84 330.95C95.84 302.4 59.25 277.5 50.62 276.07C50.55 276.06 50.49 276.04 50.44 276C50.38 275.97 50.33 275.93 50.29 275.87C50.25 275.82 50.22 275.76 50.21 275.7C50.19 275.63 50.19 275.57 50.2 275.5C50.21 275.44 50.24 275.37 50.27 275.32C50.31 275.26 50.35 275.22 50.41 275.18C50.46 275.14 50.52 275.11 50.58 275.1C50.65 275.08 50.72 275.08 50.78 275.09C59.87 276.59 96.83 301.3 97.84 330.91C97.84 330.98 97.83 331.04 97.81 331.1C97.79 331.16 97.75 331.22 97.71 331.27C97.66 331.32 97.61 331.36 97.55 331.38C97.49 331.41 97.43 331.43 97.36 331.43L97.34 331.43Z" />
			<path id="Layer" class="shp2" d="M254.26 383C253.86 378 250 369.46 244.26 363.38C238.52 357.3 229.4 354.38 223.76 356.82C218.51 359.1 219.67 366.14 226.6 370.31C233.53 374.48 243.85 379.58 247.39 387.47L254.23 396.94L254.26 383Z" />
			<path id="Layer" class="shp3" d="M254.26 383C253.86 378 250 369.46 244.26 363.38C238.52 357.3 229.4 354.38 223.76 356.82C218.51 359.1 219.67 366.14 226.6 370.31C233.53 374.48 243.85 379.58 247.39 387.47L254.23 396.94L254.26 383Z" />
			<path id="Layer" class="shp4" d="M254.26 392.16L254.36 392.16C254.45 392.15 254.53 392.12 254.61 392.07C254.69 392.03 254.76 391.97 254.81 391.9C254.86 391.82 254.9 391.74 254.93 391.66C254.95 391.57 254.95 391.48 254.94 391.39C252.45 372.86 233.62 359.97 226.13 358.55C226.04 358.53 225.95 358.53 225.86 358.55C225.78 358.57 225.69 358.6 225.62 358.65C225.54 358.7 225.48 358.77 225.43 358.84C225.38 358.92 225.35 359 225.33 359.09C225.31 359.18 225.31 359.27 225.33 359.36C225.35 359.44 225.38 359.53 225.43 359.6C225.48 359.68 225.55 359.74 225.62 359.79C225.7 359.84 225.78 359.87 225.87 359.89C232.87 361.22 251.21 373.97 253.58 391.57C253.59 391.65 253.62 391.73 253.66 391.8C253.7 391.87 253.75 391.94 253.81 391.99C253.87 392.04 253.94 392.09 254.02 392.12C254.1 392.14 254.18 392.16 254.26 392.16Z" />
			<path id="Layer" class="shp5" d="M253.52 403.7C252.52 400.95 248.68 396.58 242.81 393.2C236.32 389.45 228.39 388.12 226.33 384.97C223.86 381.17 226.9 377.16 233.27 377.43C239.64 377.7 251.45 385.43 254.27 398.26L253.52 403.7Z" />
			<path id="Layer" class="shp4" d="M254 401L254.13 401C254.22 400.98 254.3 400.95 254.38 400.9C254.46 400.85 254.52 400.78 254.57 400.71C254.62 400.63 254.66 400.55 254.67 400.46C254.69 400.37 254.69 400.28 254.67 400.19C252.78 390.69 239.01 380.85 230.11 380.44C230.02 380.44 229.93 380.46 229.85 380.49C229.77 380.52 229.69 380.57 229.62 380.63C229.56 380.69 229.5 380.76 229.46 380.84C229.42 380.92 229.4 381 229.39 381.09C229.39 381.18 229.4 381.27 229.43 381.36C229.47 381.44 229.51 381.52 229.57 381.58C229.63 381.65 229.71 381.7 229.79 381.74C229.87 381.78 229.96 381.8 230.05 381.81C238.31 382.19 251.58 391.66 253.33 400.46C253.35 400.54 253.38 400.61 253.42 400.68C253.46 400.74 253.51 400.8 253.57 400.85C253.63 400.9 253.7 400.94 253.77 400.96C253.84 400.99 253.92 401 254 401Z" />
		</g>
	</g>
	<g id="freepik--Calendar--inject-104">
		<g id="freepik--calendar--inject-104">
			<path id="Layer" class="shp6" d="M92.66 336C92.37 335.81 92.12 335.57 91.9 335.31C91.68 335.04 91.5 334.74 91.37 334.42C91.24 334.1 91.16 333.76 91.12 333.42C91.09 333.08 91.11 332.73 91.18 332.39L126.64 175.45C126.75 175.07 126.88 174.71 127.06 174.36C127.23 174.01 127.43 173.67 127.66 173.36C127.89 173.04 128.15 172.75 128.43 172.48C128.72 172.22 129.02 171.97 129.35 171.76L340.35 49.96C340.67 49.79 341.01 49.66 341.36 49.57C341.72 49.48 342.08 49.43 342.44 49.42C342.81 49.42 343.17 49.45 343.52 49.53C343.88 49.61 344.22 49.73 344.55 49.89C344.83 50.08 345.09 50.32 345.3 50.58C345.51 50.85 345.69 51.15 345.82 51.47C345.94 51.78 346.03 52.12 346.06 52.46C346.09 52.8 346.07 53.14 346 53.48L310.53 210.42C310.42 210.8 310.28 211.16 310.11 211.51C309.94 211.86 309.74 212.2 309.51 212.51C309.27 212.83 309.02 213.12 308.73 213.39C308.45 213.66 308.14 213.9 307.81 214.11L96.86 335.91C96.54 336.08 96.2 336.21 95.85 336.31C95.5 336.4 95.13 336.45 94.77 336.46C94.41 336.47 94.04 336.43 93.69 336.35C93.33 336.28 92.99 336.16 92.66 336L92.66 336Z" />
			<path id="Layer" class="shp7" d="M130.7 177.77L95.24 334.77C94.94 336.11 95.66 336.65 96.86 335.96L307.86 214.16C308.19 213.95 308.5 213.71 308.78 213.44C309.07 213.17 309.32 212.88 309.56 212.56C309.79 212.25 309.99 211.91 310.16 211.56C310.33 211.21 310.47 210.85 310.58 210.47L346 53.48C346.3 52.13 345.58 51.6 344.38 52.29L133.38 174.09C133.06 174.3 132.75 174.55 132.47 174.81C132.19 175.08 131.94 175.38 131.71 175.69C131.48 176 131.28 176.34 131.11 176.68C130.94 177.03 130.8 177.4 130.7 177.77Z" />
			<path id="Layer" class="shp6" d="M348.57 52.21C348.24 52.05 347.9 51.93 347.54 51.85C347.19 51.78 346.82 51.74 346.46 51.75C346.1 51.75 345.74 51.8 345.38 51.9C345.03 51.99 344.69 52.12 344.37 52.29L133.37 174.09C133.07 174.29 132.79 174.52 132.55 174.8C132.31 175.07 132.11 175.37 131.95 175.7C131.79 176.02 131.67 176.37 131.61 176.73C131.54 177.08 131.53 177.45 131.56 177.81L159.33 372.2C159.4 372.57 159.5 372.93 159.64 373.27C159.78 373.62 159.95 373.95 160.16 374.27C160.36 374.58 160.6 374.87 160.86 375.14C161.12 375.4 161.41 375.64 161.72 375.85C162.05 376.01 162.39 376.13 162.74 376.21C163.1 376.29 163.46 376.32 163.82 376.32C164.19 376.31 164.55 376.26 164.9 376.17C165.25 376.08 165.59 375.94 165.91 375.77L376.87 254C377.18 253.8 377.45 253.56 377.69 253.29C377.93 253.02 378.14 252.72 378.3 252.39C378.45 252.06 378.57 251.71 378.63 251.36C378.7 251 378.71 250.63 378.68 250.27L351 55.86C350.93 55.49 350.82 55.13 350.68 54.78C350.54 54.43 350.36 54.1 350.16 53.79C349.95 53.48 349.71 53.18 349.44 52.92C349.18 52.65 348.88 52.42 348.57 52.21L348.57 52.21Z" />
			<path id="Layer" class="shp8" d="M135.66 180.16L163.39 374.55C163.4 374.84 163.48 375.12 163.64 375.37C163.79 375.61 164.01 375.81 164.28 375.93C164.54 376.06 164.83 376.11 165.12 376.08C165.4 376.05 165.68 375.95 165.91 375.77L376.87 254C377.18 253.8 377.45 253.56 377.69 253.29C377.93 253.02 378.14 252.72 378.3 252.39C378.45 252.06 378.57 251.71 378.63 251.36C378.7 251 378.71 250.63 378.68 250.27L351 55.86C351 55.57 350.91 55.29 350.76 55.04C350.6 54.79 350.38 54.6 350.12 54.47C349.86 54.34 349.57 54.29 349.28 54.32C348.99 54.35 348.71 54.45 348.48 54.63L137.48 176.43C137.17 176.63 136.9 176.86 136.65 177.14C136.41 177.41 136.21 177.71 136.05 178.04C135.89 178.37 135.77 178.72 135.71 179.07C135.64 179.43 135.63 179.8 135.66 180.16L135.66 180.16Z" />
			<path id="Layer" class="shp1" d="M95.43 333.89L149.43 302.7L151 314L126.24 328.3C126.24 328.3 119.64 330.64 117.02 331.3C114.4 331.96 95.43 333.89 95.43 333.89Z" />
			<path id="Layer" class="shp7" d="M151.03 314.01L159.13 370.81L126.27 328.31L151.03 314.01L151.03 314.01Z" />
			<path id="Layer" class="shp1" d="M158.16 372.7L128.71 334.45C128.47 334.17 128.19 333.91 127.89 333.69C127.58 333.47 127.25 333.29 126.91 333.15C126.56 333.01 126.2 332.91 125.83 332.85C125.46 332.8 125.08 332.79 124.71 332.82L97.17 336.82C96.78 336.86 96.4 336.87 96.01 336.86C95.62 336.85 95.24 336.8 94.86 336.74C94.47 336.67 94.1 336.57 93.73 336.45C93.36 336.32 93.01 336.17 92.66 336C91.54 335.36 91.73 334.62 93.08 334.36L124.73 328.27C125.1 328.21 125.47 328.21 125.85 328.25C126.22 328.29 126.58 328.38 126.93 328.51C127.28 328.64 127.61 328.82 127.91 329.04C128.22 329.26 128.49 329.51 128.73 329.8L162.26 375C163.08 376.11 162.84 376.48 161.72 375.83C161.38 375.62 161.06 375.4 160.74 375.16C160.42 374.92 160.11 374.67 159.81 374.41C159.51 374.15 159.23 373.87 158.95 373.59C158.68 373.3 158.41 373.01 158.16 372.7Z" />
			<path id="Layer" class="shp2" d="M346.05 52.71C346.05 52.43 346.01 52.15 345.94 51.88C345.87 51.61 345.77 51.34 345.64 51.1C345.5 50.85 345.34 50.62 345.15 50.41C344.96 50.21 344.74 50.02 344.51 49.87C344.18 49.71 343.84 49.59 343.48 49.52C343.13 49.44 342.76 49.41 342.4 49.41C342.04 49.42 341.68 49.47 341.32 49.56C340.97 49.65 340.63 49.78 340.31 49.95L129.31 171.75C129.15 171.85 128.99 171.96 128.84 172.07C128.69 172.19 128.55 172.31 128.41 172.44C128.27 172.57 128.14 172.71 128.02 172.85C127.89 172.99 127.77 173.14 127.66 173.29C127.54 173.45 127.42 173.61 127.31 173.79C127.21 173.96 127.11 174.13 127.02 174.31C126.93 174.49 126.85 174.68 126.78 174.87C126.7 175.05 126.64 175.25 126.59 175.44L121.59 197.61L125.65 199.94L341 75.64L346 53.48C346.01 53.42 346.02 53.35 346.03 53.29C346.04 53.23 346.05 53.16 346.05 53.1C346.06 53.03 346.06 52.97 346.06 52.9C346.06 52.84 346.06 52.77 346.06 52.71L346.05 52.71Z" />
			<path id="Layer" class="shp9" d="M346 53.48C346.3 52.13 345.58 51.6 344.38 52.29L133.38 174.09C133.05 174.3 132.75 174.54 132.46 174.81C132.18 175.08 131.92 175.37 131.69 175.68C131.46 176 131.26 176.33 131.09 176.68C130.92 177.03 130.78 177.4 130.67 177.77L125.67 199.94L341 75.64L346 53.48Z" />
			<path id="Layer" class="shp3" d="M131.76 175.63C131.64 175.79 131.52 175.95 131.41 176.12C131.31 176.29 131.21 176.47 131.12 176.65C131.03 176.83 130.95 177.01 130.88 177.2C130.81 177.38 130.75 177.58 130.7 177.77L125.7 199.94L121.64 197.6L126.64 175.43C126.69 175.24 126.75 175.04 126.83 174.86C126.9 174.67 126.98 174.48 127.07 174.3C127.16 174.12 127.26 173.95 127.36 173.78C127.47 173.6 127.59 173.44 127.71 173.28L131.76 175.63Z" />
			<path id="Layer" class="shp10" d="M346.05 52.7C345.95 51.95 345.3 51.7 344.37 52.29L133.37 174.08C133.21 174.18 133.05 174.29 132.9 174.4C132.75 174.52 132.61 174.64 132.47 174.77C132.33 174.9 132.2 175.04 132.07 175.18C131.95 175.33 131.83 175.48 131.72 175.63L127.66 173.28C127.77 173.13 127.89 172.98 128.02 172.84C128.14 172.7 128.27 172.56 128.41 172.43C128.55 172.3 128.69 172.18 128.84 172.06C128.99 171.95 129.15 171.84 129.31 171.74L340.31 49.94C340.63 49.77 340.97 49.64 341.32 49.55C341.68 49.46 342.04 49.41 342.4 49.4C342.76 49.4 343.13 49.43 343.48 49.51C343.84 49.58 344.18 49.7 344.51 49.86C344.74 50.01 344.96 50.2 345.15 50.4C345.34 50.61 345.5 50.84 345.64 51.09C345.77 51.33 345.87 51.6 345.94 51.87C346.01 52.14 346.05 52.42 346.05 52.7Z" />
			<path id="Layer" class="shp2" d="M351.21 57.72L351.21 57.72L351 55.86C351 55.84 350.99 55.81 350.99 55.79C350.98 55.77 350.98 55.75 350.97 55.72C350.97 55.7 350.96 55.68 350.96 55.66C350.95 55.63 350.95 55.61 350.94 55.59C350.94 55.58 350.94 55.58 350.94 55.57C350.94 55.56 350.94 55.56 350.94 55.55C350.94 55.54 350.94 55.54 350.94 55.53C350.94 55.52 350.94 55.52 350.94 55.51L350.94 55.51C350.86 55.18 350.74 54.85 350.6 54.54C350.46 54.23 350.28 53.93 350.09 53.65C349.89 53.37 349.67 53.1 349.42 52.86C349.18 52.62 348.91 52.4 348.63 52.21C348.3 52.05 347.96 51.93 347.6 51.85C347.25 51.78 346.88 51.74 346.52 51.75C346.16 51.75 345.8 51.8 345.44 51.9C345.09 51.99 344.75 52.12 344.43 52.29L133.43 174.09C133.27 174.19 133.12 174.3 132.98 174.42C132.84 174.54 132.7 174.67 132.58 174.81C132.46 174.95 132.35 175.1 132.25 175.26C132.14 175.42 132.06 175.58 131.98 175.75L131.98 175.75C131.9 175.91 131.84 176.07 131.78 176.24C131.73 176.41 131.68 176.58 131.65 176.75C131.62 176.93 131.61 177.1 131.6 177.28C131.59 177.46 131.6 177.63 131.62 177.81L135.62 205.66L139.68 208.01L354.93 83.72L351.21 57.72Z" />
			<path id="Layer" class="shp3" d="M139.64 208L135.58 205.65L131.58 177.8C131.56 177.62 131.55 177.45 131.56 177.27C131.57 177.09 131.58 176.92 131.61 176.74C131.64 176.57 131.69 176.4 131.74 176.23C131.8 176.06 131.86 175.9 131.94 175.74L136.01 178.08C135.93 178.24 135.86 178.4 135.81 178.57C135.75 178.74 135.71 178.91 135.68 179.08C135.64 179.26 135.63 179.43 135.62 179.61C135.61 179.79 135.62 179.96 135.64 180.14L139.64 208Z" />
			<path id="Layer" class="shp10" d="M350.88 55.51C350.82 55.26 350.7 55.02 350.53 54.83C350.36 54.64 350.14 54.49 349.9 54.4C349.66 54.31 349.4 54.29 349.14 54.33C348.89 54.37 348.64 54.47 348.44 54.63L137.44 176.43C137.28 176.53 137.13 176.64 136.99 176.76C136.84 176.88 136.71 177.01 136.59 177.15C136.47 177.29 136.35 177.44 136.25 177.6C136.15 177.75 136.07 177.92 135.99 178.09L132 175.75C132.08 175.58 132.17 175.41 132.27 175.26C132.37 175.1 132.48 174.95 132.6 174.81C132.72 174.67 132.86 174.53 133 174.41C133.14 174.29 133.29 174.18 133.45 174.08L344.45 52.29C344.77 52.12 345.11 51.99 345.46 51.9C345.82 51.8 346.18 51.75 346.54 51.75C346.9 51.74 347.27 51.78 347.62 51.85C347.98 51.93 348.32 52.05 348.65 52.21C348.93 52.41 349.19 52.63 349.42 52.87C349.66 53.11 349.88 53.37 350.07 53.66C350.26 53.94 350.42 54.24 350.56 54.55C350.69 54.86 350.8 55.18 350.88 55.51L350.88 55.51Z" />
			<path id="Layer" class="shp5" d="M195.65 342.34L193.13 324.63C193.13 324.4 193.06 324.17 192.94 323.98C192.81 323.78 192.64 323.63 192.43 323.52C192.23 323.42 192 323.38 191.77 323.39C191.54 323.41 191.32 323.49 191.13 323.63L172.74 334.25C172.49 334.41 172.27 334.6 172.08 334.82C171.88 335.04 171.72 335.28 171.59 335.54C171.46 335.81 171.37 336.09 171.32 336.38C171.27 336.66 171.26 336.96 171.29 337.25L173.8 355C173.8 355.23 173.86 355.46 173.99 355.66C174.11 355.85 174.28 356.01 174.49 356.12C174.7 356.22 174.93 356.27 175.16 356.24C175.39 356.22 175.61 356.14 175.8 356L194.19 345.38C194.44 345.22 194.67 345.03 194.87 344.81C195.06 344.59 195.23 344.34 195.36 344.07C195.49 343.8 195.58 343.52 195.63 343.23C195.68 342.93 195.68 342.63 195.65 342.34Z" />
			<path id="Layer" class="shp11" d="M224.09 325.94L221.56 308.24C221.56 308.01 221.5 307.78 221.37 307.58C221.25 307.39 221.08 307.23 220.87 307.12C220.66 307.02 220.43 306.97 220.2 307C219.97 307.02 219.75 307.1 219.56 307.24L201.17 317.85C200.92 318.01 200.7 318.2 200.51 318.42C200.31 318.64 200.15 318.88 200.02 319.15C199.89 319.41 199.8 319.69 199.75 319.98C199.7 320.27 199.69 320.56 199.72 320.85L202.25 338.56C202.25 338.79 202.31 339.02 202.44 339.22C202.56 339.41 202.73 339.57 202.94 339.68C203.15 339.78 203.38 339.83 203.61 339.8C203.84 339.78 204.06 339.7 204.25 339.56L222.64 328.94C222.89 328.78 223.11 328.59 223.31 328.37C223.5 328.15 223.66 327.91 223.79 327.65C223.92 327.38 224.01 327.1 224.06 326.81C224.11 326.53 224.12 326.23 224.09 325.94Z" />
			<path id="Layer" class="shp11" d="M252.53 309.54L250 291.84C250 291.61 249.94 291.38 249.81 291.18C249.69 290.99 249.52 290.83 249.31 290.72C249.1 290.62 248.87 290.57 248.64 290.6C248.41 290.62 248.19 290.7 248 290.84L229.6 301.47C229.35 301.63 229.13 301.82 228.94 302.04C228.74 302.26 228.58 302.5 228.45 302.77C228.32 303.03 228.23 303.31 228.18 303.6C228.13 303.89 228.12 304.18 228.15 304.47L230.68 322.18C230.68 322.41 230.74 322.64 230.87 322.84C230.99 323.03 231.16 323.19 231.37 323.3C231.58 323.4 231.81 323.45 232.04 323.42C232.27 323.4 232.49 323.32 232.68 323.18L251.07 312.56C251.32 312.4 251.55 312.21 251.74 311.99C251.94 311.77 252.1 311.52 252.23 311.26C252.36 310.99 252.45 310.71 252.5 310.42C252.55 310.13 252.56 309.83 252.53 309.54Z" />
			<path id="Layer" class="shp11" d="M281 293.15L278.47 275.44C278.47 275.21 278.41 274.98 278.28 274.78C278.16 274.59 277.99 274.43 277.78 274.32C277.57 274.22 277.34 274.17 277.11 274.2C276.88 274.22 276.66 274.3 276.47 274.44L258 285.08C257.75 285.24 257.53 285.43 257.33 285.65C257.14 285.87 256.98 286.11 256.85 286.37C256.72 286.64 256.63 286.92 256.58 287.21C256.53 287.49 256.52 287.79 256.55 288.08L259.08 305.78C259.08 306.01 259.14 306.24 259.27 306.44C259.39 306.63 259.56 306.79 259.77 306.9C259.98 307 260.21 307.05 260.44 307.02C260.67 307 260.89 306.92 261.08 306.78L279.47 296.17C279.73 296.02 279.96 295.83 280.16 295.61C280.36 295.39 280.53 295.15 280.67 294.88C280.8 294.61 280.9 294.33 280.96 294.04C281.01 293.75 281.03 293.45 281 293.15L281 293.15Z" />
			<path id="Layer" class="shp11" d="M309.41 276.75L306.88 259C306.88 258.77 306.82 258.54 306.69 258.34C306.57 258.15 306.4 257.99 306.19 257.88C305.98 257.78 305.75 257.73 305.52 257.76C305.29 257.78 305.07 257.86 304.88 258L286.49 268.62C286.24 268.78 286.02 268.97 285.82 269.19C285.63 269.41 285.47 269.65 285.34 269.91C285.21 270.18 285.12 270.46 285.07 270.75C285.02 271.03 285.01 271.33 285.04 271.62L287.57 289.32C287.57 289.55 287.63 289.78 287.76 289.98C287.88 290.17 288.05 290.33 288.26 290.44C288.47 290.54 288.7 290.59 288.93 290.56C289.16 290.54 289.38 290.46 289.57 290.32L308 279.73C308.24 279.57 308.46 279.38 308.65 279.16C308.84 278.94 309 278.7 309.12 278.44C309.24 278.17 309.33 277.9 309.38 277.61C309.43 277.33 309.44 277.04 309.41 276.75L309.41 276.75Z" />
			<path id="Layer" class="shp11" d="M337.85 260.35L335.32 242.64C335.32 242.41 335.26 242.18 335.13 241.98C335.01 241.79 334.84 241.63 334.63 241.52C334.42 241.42 334.19 241.37 333.96 241.4C333.73 241.42 333.51 241.5 333.32 241.64L314.93 252.26C314.68 252.42 314.46 252.61 314.26 252.83C314.07 253.05 313.91 253.29 313.78 253.55C313.65 253.82 313.56 254.1 313.51 254.39C313.46 254.67 313.45 254.97 313.48 255.26L316 273C316 273.23 316.06 273.46 316.19 273.66C316.31 273.85 316.48 274.01 316.69 274.12C316.9 274.22 317.13 274.27 317.36 274.24C317.59 274.22 317.81 274.14 318 274L336.39 263.38C336.64 263.22 336.87 263.03 337.06 262.81C337.26 262.59 337.42 262.34 337.55 262.07C337.68 261.81 337.77 261.52 337.82 261.23C337.87 260.94 337.88 260.64 337.85 260.35Z" />
			<path id="Layer" class="shp11" d="M366.29 244L363.76 226.29C363.76 226.06 363.7 225.83 363.57 225.63C363.45 225.44 363.28 225.28 363.07 225.17C362.86 225.07 362.63 225.02 362.4 225.05C362.17 225.07 361.95 225.15 361.76 225.29L343.37 235.91C343.12 236.07 342.9 236.26 342.71 236.48C342.51 236.7 342.35 236.94 342.22 237.2C342.09 237.47 342 237.75 341.95 238.04C341.9 238.32 341.89 238.62 341.92 238.91L344.44 256.62C344.44 256.85 344.51 257.08 344.63 257.27C344.76 257.47 344.93 257.62 345.14 257.73C345.34 257.83 345.57 257.87 345.8 257.86C346.03 257.84 346.25 257.76 346.44 257.62L364.83 247C365.08 246.84 365.3 246.65 365.5 246.43C365.69 246.22 365.86 245.97 365.99 245.71C366.11 245.44 366.2 245.16 366.26 244.87C366.31 244.59 366.32 244.29 366.29 244L366.29 244Z" />
			<path id="Layer" class="shp5" d="M190.71 307.69L188.18 290C188.18 289.77 188.11 289.54 187.99 289.35C187.86 289.15 187.69 289 187.48 288.89C187.28 288.79 187.05 288.75 186.82 288.76C186.59 288.78 186.37 288.86 186.18 289L167.79 299.62C167.54 299.78 167.32 299.97 167.13 300.19C166.93 300.41 166.77 300.65 166.64 300.91C166.51 301.18 166.42 301.46 166.37 301.75C166.32 302.03 166.31 302.33 166.34 302.62L168.86 320.33C168.86 320.56 168.93 320.79 169.05 320.98C169.18 321.18 169.35 321.33 169.56 321.44C169.76 321.54 169.99 321.58 170.22 321.57C170.45 321.55 170.67 321.47 170.86 321.33L189.25 310.71C189.5 310.55 189.72 310.36 189.92 310.14C190.11 309.92 190.28 309.67 190.4 309.41C190.53 309.14 190.62 308.86 190.68 308.57C190.73 308.28 190.74 307.98 190.71 307.69L190.71 307.69Z" />
			<path id="Layer" class="shp11" d="M219.15 291.29L216.62 273.58C216.62 273.35 216.55 273.12 216.43 272.93C216.3 272.73 216.13 272.58 215.92 272.47C215.72 272.37 215.49 272.33 215.26 272.34C215.03 272.36 214.81 272.44 214.62 272.58L196.23 283.2C195.98 283.36 195.76 283.55 195.57 283.77C195.37 283.99 195.21 284.23 195.08 284.49C194.95 284.76 194.86 285.04 194.81 285.33C194.76 285.61 194.75 285.91 194.78 286.2L197.3 303.91C197.3 304.14 197.37 304.37 197.49 304.56C197.62 304.76 197.79 304.91 198 305.02C198.2 305.12 198.43 305.16 198.66 305.15C198.89 305.13 199.11 305.05 199.3 304.91L217.69 294.29C217.94 294.13 218.16 293.94 218.35 293.72C218.55 293.5 218.71 293.26 218.84 292.99C218.97 292.73 219.06 292.45 219.11 292.16C219.16 291.88 219.18 291.58 219.15 291.29Z" />
			<path id="Layer" class="shp11" d="M247.59 274.89L245.06 257.18C245.06 256.95 244.99 256.72 244.87 256.53C244.74 256.33 244.57 256.18 244.36 256.07C244.16 255.97 243.93 255.93 243.7 255.94C243.47 255.96 243.25 256.04 243.06 256.18L224.67 266.8C224.42 266.96 224.2 267.15 224.01 267.37C223.81 267.59 223.65 267.83 223.52 268.09C223.39 268.36 223.3 268.64 223.25 268.93C223.2 269.21 223.19 269.51 223.22 269.8L225.74 287.51C225.74 287.74 225.81 287.97 225.93 288.16C226.06 288.36 226.23 288.51 226.44 288.62C226.64 288.72 226.87 288.76 227.1 288.75C227.33 288.73 227.55 288.65 227.74 288.51L246.13 277.89C246.38 277.73 246.6 277.54 246.79 277.32C246.99 277.1 247.15 276.86 247.28 276.59C247.41 276.33 247.5 276.05 247.55 275.76C247.6 275.48 247.62 275.18 247.59 274.89Z" />
			<path id="Layer" class="shp11" d="M276 258.49L273.47 240.78C273.47 240.55 273.4 240.32 273.28 240.13C273.15 239.93 272.98 239.78 272.77 239.67C272.57 239.57 272.34 239.53 272.11 239.54C271.88 239.56 271.66 239.64 271.47 239.78L253.1 250.42C252.85 250.58 252.63 250.77 252.44 250.99C252.24 251.21 252.08 251.45 251.95 251.72C251.82 251.98 251.73 252.26 251.68 252.55C251.63 252.84 251.62 253.13 251.65 253.42L254.17 271.13C254.17 271.36 254.24 271.59 254.36 271.78C254.49 271.98 254.66 272.13 254.87 272.24C255.07 272.34 255.3 272.38 255.53 272.37C255.76 272.35 255.98 272.27 256.17 272.13L274.56 261.51C274.81 261.35 275.03 261.16 275.22 260.94C275.42 260.71 275.58 260.47 275.7 260.2C275.83 259.94 275.92 259.66 275.97 259.37C276.02 259.08 276.03 258.78 276 258.49Z" />
			<path id="Layer" class="shp11" d="M304.47 242.09L301.94 224.39C301.94 224.16 301.88 223.93 301.75 223.73C301.63 223.54 301.46 223.38 301.25 223.27C301.04 223.17 300.81 223.12 300.58 223.15C300.35 223.17 300.13 223.25 299.94 223.39L281.54 234C281.29 234.16 281.07 234.35 280.88 234.57C280.68 234.79 280.52 235.03 280.39 235.3C280.26 235.56 280.17 235.84 280.12 236.13C280.07 236.42 280.06 236.71 280.09 237L282.61 254.71C282.61 254.94 282.68 255.17 282.8 255.36C282.93 255.56 283.1 255.71 283.31 255.82C283.51 255.92 283.74 255.96 283.97 255.95C284.2 255.93 284.42 255.85 284.61 255.71L303 245.07C303.25 244.91 303.47 244.72 303.66 244.51C303.86 244.29 304.02 244.05 304.15 243.79C304.28 243.52 304.37 243.25 304.43 242.96C304.48 242.67 304.49 242.38 304.47 242.09L304.47 242.09Z" />
			<path id="Layer" class="shp11" d="M332.91 225.69L330.38 208C330.38 207.77 330.32 207.54 330.19 207.34C330.07 207.15 329.9 206.99 329.69 206.88C329.48 206.78 329.25 206.73 329.02 206.76C328.79 206.78 328.57 206.86 328.38 207L310 217.63C309.75 217.79 309.53 217.98 309.33 218.2C309.14 218.42 308.98 218.66 308.85 218.92C308.72 219.19 308.63 219.47 308.58 219.76C308.53 220.04 308.52 220.34 308.55 220.63L311.07 238.33C311.07 238.56 311.14 238.79 311.26 238.98C311.39 239.18 311.56 239.33 311.77 239.44C311.97 239.54 312.2 239.58 312.43 239.57C312.66 239.55 312.88 239.47 313.07 239.33L331.46 228.71C331.71 228.55 331.93 228.36 332.13 228.14C332.32 227.92 332.48 227.67 332.61 227.4C332.74 227.14 332.83 226.86 332.88 226.57C332.93 226.28 332.94 225.98 332.91 225.69Z" />
			<path id="Layer" class="shp11" d="M361.35 209.3L358.82 191.59C358.82 191.36 358.76 191.13 358.63 190.93C358.51 190.74 358.34 190.58 358.13 190.47C357.92 190.37 357.69 190.32 357.46 190.35C357.23 190.37 357.01 190.45 356.82 190.59L338.42 201.21C338.17 201.37 337.95 201.56 337.76 201.78C337.56 202 337.4 202.24 337.28 202.51C337.15 202.77 337.06 203.05 337.01 203.34C336.96 203.63 336.95 203.92 336.98 204.21L339.5 221.91C339.5 222.14 339.57 222.37 339.69 222.56C339.82 222.76 339.99 222.91 340.2 223.02C340.4 223.12 340.63 223.16 340.86 223.15C341.09 223.13 341.31 223.05 341.5 222.91L359.89 212.3C360.14 212.14 360.36 211.95 360.55 211.73C360.75 211.51 360.91 211.27 361.04 211C361.17 210.74 361.26 210.46 361.31 210.17C361.36 209.89 361.38 209.59 361.35 209.3Z" />
			<path id="Layer" class="shp5" d="M185.76 273L183.24 255.29C183.24 255.06 183.17 254.83 183.05 254.64C182.92 254.44 182.75 254.29 182.54 254.18C182.34 254.08 182.11 254.04 181.88 254.05C181.65 254.07 181.43 254.15 181.24 254.29L162.83 265C162.58 265.16 162.36 265.35 162.17 265.57C161.98 265.79 161.81 266.03 161.69 266.3C161.56 266.56 161.47 266.84 161.42 267.13C161.36 267.42 161.35 267.71 161.38 268L163.91 285.7C163.91 285.93 163.97 286.16 164.1 286.36C164.22 286.55 164.39 286.71 164.6 286.82C164.81 286.92 165.04 286.97 165.27 286.94C165.5 286.92 165.72 286.84 165.91 286.7L184.31 276C184.56 275.84 184.78 275.65 184.97 275.43C185.17 275.21 185.33 274.97 185.46 274.7C185.59 274.44 185.68 274.16 185.73 273.87C185.78 273.58 185.79 273.29 185.76 273Z" />
			<path id="Layer" class="shp11" d="M214.2 256.64L211.68 238.93C211.68 238.7 211.61 238.47 211.49 238.28C211.36 238.08 211.19 237.93 210.98 237.82C210.78 237.72 210.55 237.68 210.32 237.69C210.09 237.71 209.87 237.79 209.68 237.93L191.29 248.55C191.04 248.71 190.82 248.9 190.63 249.12C190.44 249.34 190.27 249.58 190.15 249.85C190.02 250.11 189.93 250.39 189.88 250.68C189.82 250.97 189.81 251.26 189.84 251.55L192.37 269.26C192.37 269.49 192.44 269.72 192.56 269.91C192.69 270.11 192.86 270.26 193.07 270.37C193.27 270.47 193.5 270.51 193.73 270.5C193.96 270.48 194.18 270.4 194.37 270.26L212.76 259.64C213.01 259.48 213.23 259.29 213.42 259.07C213.62 258.85 213.78 258.61 213.9 258.34C214.03 258.08 214.12 257.8 214.17 257.51C214.22 257.22 214.23 256.93 214.2 256.64Z" />
			<path id="Layer" class="shp11" d="M242.64 240.24L240.12 222.53C240.12 222.3 240.05 222.07 239.93 221.88C239.8 221.68 239.63 221.53 239.42 221.42C239.22 221.32 238.99 221.28 238.76 221.29C238.53 221.31 238.31 221.39 238.12 221.53L219.73 232.15C219.48 232.31 219.26 232.5 219.07 232.72C218.88 232.94 218.71 233.18 218.59 233.45C218.46 233.71 218.37 233.99 218.32 234.28C218.27 234.57 218.25 234.86 218.28 235.15L220.81 252.86C220.81 253.09 220.88 253.32 221 253.51C221.13 253.71 221.3 253.86 221.51 253.97C221.71 254.07 221.94 254.11 222.17 254.1C222.4 254.08 222.62 254 222.81 253.86L241.2 243.24C241.45 243.08 241.67 242.89 241.86 242.67C242.06 242.45 242.22 242.21 242.34 241.94C242.47 241.68 242.56 241.4 242.61 241.11C242.66 240.82 242.67 240.53 242.64 240.24Z" />
			<path id="Layer" class="shp11" d="M271.08 223.84L268.56 206.13C268.56 205.9 268.49 205.67 268.37 205.48C268.24 205.28 268.07 205.13 267.86 205.02C267.66 204.92 267.43 204.88 267.2 204.89C266.97 204.91 266.75 204.99 266.56 205.13L248.17 215.75C247.92 215.91 247.7 216.1 247.51 216.32C247.32 216.54 247.15 216.78 247.03 217.05C246.9 217.31 246.81 217.59 246.76 217.88C246.71 218.17 246.69 218.46 246.72 218.75L249.25 236.46C249.25 236.69 249.32 236.92 249.44 237.11C249.57 237.31 249.74 237.46 249.95 237.57C250.15 237.67 250.38 237.71 250.61 237.7C250.84 237.68 251.06 237.6 251.25 237.46L269.64 226.84C269.89 226.68 270.11 226.49 270.3 226.27C270.5 226.05 270.66 225.81 270.78 225.54C270.91 225.28 271 225 271.05 224.71C271.1 224.42 271.11 224.13 271.08 223.84Z" />
			<path id="Layer" class="shp11" d="M299.52 207.44L297 189.73C297 189.5 296.93 189.27 296.81 189.08C296.68 188.88 296.51 188.73 296.3 188.62C296.1 188.52 295.87 188.48 295.64 188.49C295.41 188.51 295.19 188.59 295 188.73L276.61 199.35C276.36 199.51 276.14 199.7 275.95 199.92C275.76 200.14 275.59 200.38 275.47 200.65C275.34 200.91 275.25 201.19 275.2 201.48C275.15 201.77 275.13 202.06 275.16 202.35L277.69 220.06C277.69 220.29 277.76 220.52 277.88 220.71C278.01 220.91 278.18 221.06 278.39 221.17C278.59 221.27 278.82 221.31 279.05 221.3C279.28 221.28 279.5 221.2 279.69 221.06L298.08 210.44C298.33 210.28 298.55 210.09 298.74 209.87C298.94 209.65 299.1 209.41 299.22 209.14C299.35 208.88 299.44 208.6 299.49 208.31C299.54 208.02 299.55 207.73 299.52 207.44Z" />
			<path id="Layer" class="shp11" d="M328 191L325.48 173.29C325.48 173.06 325.41 172.83 325.29 172.64C325.16 172.44 324.99 172.29 324.78 172.18C324.58 172.08 324.35 172.04 324.12 172.05C323.89 172.07 323.67 172.15 323.48 172.29L305 183C304.75 183.16 304.53 183.35 304.34 183.57C304.15 183.79 303.98 184.03 303.86 184.3C303.73 184.56 303.64 184.84 303.59 185.13C303.54 185.42 303.52 185.71 303.55 186L306.08 203.71C306.08 203.94 306.15 204.17 306.27 204.36C306.4 204.56 306.57 204.71 306.78 204.82C306.98 204.92 307.21 204.96 307.44 204.95C307.67 204.93 307.89 204.85 308.08 204.71L326.51 194C326.76 193.85 326.99 193.66 327.19 193.44C327.39 193.22 327.55 192.98 327.68 192.71C327.81 192.45 327.91 192.17 327.96 191.88C328.02 191.59 328.03 191.29 328 191Z" />
			<path id="Layer" class="shp11" d="M356.4 174.64L353.88 156.94C353.88 156.71 353.81 156.48 353.69 156.29C353.56 156.09 353.39 155.94 353.18 155.83C352.98 155.73 352.75 155.69 352.52 155.7C352.29 155.72 352.07 155.8 351.88 155.94L333.49 166.55C333.24 166.71 333.02 166.9 332.83 167.12C332.64 167.34 332.47 167.58 332.35 167.85C332.22 168.11 332.13 168.39 332.08 168.68C332.02 168.97 332.01 169.26 332.04 169.55L334.57 187.26C334.57 187.49 334.64 187.72 334.76 187.91C334.89 188.11 335.06 188.26 335.27 188.37C335.47 188.47 335.7 188.51 335.93 188.5C336.16 188.48 336.38 188.4 336.57 188.26L355 177.62C355.24 177.46 355.46 177.27 355.65 177.05C355.84 176.83 355.99 176.59 356.12 176.33C356.24 176.06 356.33 175.79 356.37 175.5C356.42 175.22 356.43 174.93 356.4 174.64Z" />
			<path id="Layer" class="shp5" d="M180.82 238.38L178.29 220.68C178.29 220.45 178.23 220.22 178.1 220.02C177.98 219.83 177.81 219.67 177.6 219.56C177.39 219.46 177.16 219.41 176.93 219.44C176.7 219.46 176.48 219.54 176.29 219.68L157.9 230.29C157.65 230.45 157.43 230.64 157.24 230.86C157.04 231.08 156.88 231.32 156.75 231.59C156.62 231.85 156.53 232.13 156.48 232.42C156.43 232.71 156.42 233 156.45 233.29L159 251C159 251.23 159.06 251.46 159.19 251.66C159.31 251.85 159.48 252.01 159.69 252.12C159.9 252.22 160.13 252.27 160.36 252.24C160.59 252.22 160.81 252.14 161 252L179.39 241.38C179.64 241.22 179.86 241.03 180.05 240.81C180.24 240.59 180.4 240.35 180.53 240.08C180.66 239.82 180.74 239.54 180.79 239.25C180.84 238.96 180.85 238.67 180.82 238.38Z" />
			<path id="Layer" class="shp11" d="M209.26 222L206.73 204.3C206.73 204.07 206.67 203.84 206.54 203.64C206.42 203.45 206.25 203.29 206.04 203.18C205.83 203.08 205.6 203.03 205.37 203.06C205.14 203.08 204.92 203.16 204.73 203.3L186.34 213.92C186.09 214.08 185.87 214.27 185.67 214.49C185.48 214.71 185.32 214.95 185.19 215.21C185.06 215.48 184.97 215.76 184.92 216.05C184.87 216.33 184.86 216.63 184.89 216.92L187.42 234.62C187.42 234.85 187.48 235.08 187.61 235.28C187.73 235.47 187.9 235.63 188.11 235.74C188.32 235.84 188.55 235.89 188.78 235.86C189.01 235.84 189.23 235.76 189.42 235.62L207.81 225C208.06 224.84 208.28 224.65 208.48 224.43C208.67 224.21 208.83 223.97 208.96 223.71C209.09 223.44 209.18 223.16 209.23 222.87C209.28 222.59 209.29 222.29 209.26 222Z" />
			<path id="Layer" class="shp11" d="M237.7 205.59L235.17 187.88C235.17 187.65 235.11 187.42 234.98 187.22C234.86 187.03 234.69 186.87 234.48 186.76C234.27 186.66 234.04 186.61 233.81 186.64C233.58 186.66 233.36 186.74 233.17 186.88L214.78 197.5C214.53 197.66 214.31 197.85 214.11 198.07C213.92 198.29 213.76 198.53 213.63 198.79C213.5 199.06 213.41 199.34 213.36 199.63C213.31 199.91 213.3 200.21 213.33 200.5L215.86 218.2C215.86 218.43 215.92 218.66 216.05 218.86C216.17 219.05 216.34 219.21 216.55 219.32C216.76 219.42 216.99 219.47 217.22 219.44C217.45 219.42 217.67 219.34 217.86 219.2L236.25 208.59C236.5 208.43 236.72 208.24 236.91 208.02C237.11 207.8 237.27 207.56 237.4 207.29C237.53 207.03 237.62 206.75 237.67 206.46C237.72 206.17 237.73 205.88 237.7 205.59L237.7 205.59Z" />
			<path id="Layer" class="shp11" d="M266.14 189.19L263.61 171.48C263.61 171.25 263.55 171.02 263.42 170.82C263.3 170.63 263.13 170.47 262.92 170.36C262.71 170.26 262.48 170.21 262.25 170.24C262.02 170.26 261.8 170.34 261.61 170.48L243.22 181.1C242.97 181.26 242.75 181.45 242.55 181.67C242.36 181.89 242.2 182.13 242.07 182.39C241.94 182.66 241.85 182.94 241.8 183.23C241.75 183.51 241.74 183.81 241.77 184.1L244.29 201.81C244.29 202.04 244.36 202.27 244.48 202.46C244.61 202.66 244.78 202.81 244.99 202.92C245.19 203.02 245.42 203.06 245.65 203.05C245.88 203.03 246.1 202.95 246.29 202.81L264.68 192.19C264.93 192.03 265.15 191.84 265.35 191.62C265.54 191.4 265.71 191.16 265.83 190.9C265.96 190.63 266.05 190.35 266.1 190.06C266.16 189.78 266.17 189.48 266.14 189.19Z" />
			<path id="Layer" class="shp11" d="M294.58 172.79L292.05 155.08C292.05 154.85 291.99 154.62 291.86 154.42C291.74 154.23 291.57 154.07 291.36 153.96C291.15 153.86 290.92 153.81 290.69 153.84C290.46 153.86 290.24 153.94 290.05 154.08L271.66 164.7C271.41 164.86 271.19 165.05 270.99 165.27C270.8 165.49 270.64 165.73 270.51 165.99C270.38 166.26 270.29 166.54 270.24 166.83C270.19 167.11 270.18 167.41 270.21 167.7L272.73 185.41C272.73 185.64 272.8 185.87 272.92 186.06C273.05 186.26 273.22 186.41 273.43 186.52C273.63 186.62 273.86 186.66 274.09 186.65C274.32 186.63 274.54 186.55 274.73 186.41L293.12 175.79C293.37 175.63 293.59 175.44 293.79 175.22C293.98 175.01 294.15 174.76 294.28 174.5C294.4 174.23 294.49 173.95 294.55 173.66C294.6 173.38 294.61 173.08 294.58 172.79L294.58 172.79Z" />
			<path id="Layer" class="shp11" d="M323 156.39L320.47 138.68C320.47 138.45 320.41 138.22 320.28 138.02C320.16 137.83 319.99 137.67 319.78 137.56C319.57 137.46 319.34 137.41 319.11 137.44C318.88 137.46 318.66 137.54 318.47 137.68L300.08 148.3C299.83 148.46 299.61 148.65 299.42 148.87C299.22 149.09 299.06 149.33 298.93 149.59C298.8 149.86 298.71 150.14 298.66 150.43C298.61 150.71 298.6 151.01 298.63 151.3L301.16 169C301.16 169.23 301.23 169.46 301.35 169.65C301.48 169.85 301.65 170 301.86 170.11C302.06 170.21 302.29 170.25 302.52 170.24C302.75 170.22 302.97 170.14 303.16 170L321.55 159.38C321.8 159.22 322.02 159.03 322.21 158.81C322.41 158.6 322.57 158.35 322.7 158.09C322.82 157.83 322.91 157.55 322.97 157.26C323.02 156.97 323.03 156.68 323 156.39L323 156.39Z" />
			<path id="Layer" class="shp11" d="M351.46 140L348.93 122.29C348.93 122.06 348.87 121.83 348.74 121.63C348.62 121.44 348.45 121.28 348.24 121.17C348.03 121.07 347.8 121.02 347.57 121.05C347.34 121.07 347.12 121.15 346.93 121.29L328.54 131.91C328.29 132.07 328.07 132.26 327.88 132.48C327.68 132.7 327.52 132.94 327.39 133.2C327.26 133.47 327.17 133.75 327.12 134.04C327.07 134.32 327.06 134.62 327.09 134.91L329.61 152.62C329.61 152.85 329.68 153.08 329.8 153.27C329.93 153.47 330.1 153.62 330.31 153.73C330.51 153.83 330.74 153.87 330.97 153.86C331.2 153.84 331.42 153.76 331.61 153.62L350 143C350.25 142.84 350.47 142.65 350.67 142.43C350.86 142.22 351.03 141.97 351.16 141.71C351.28 141.44 351.37 141.16 351.43 140.87C351.48 140.59 351.49 140.29 351.46 140L351.46 140Z" />
			<path id="Layer" class="shp7" d="M176.45 207.08L175.81 202.56C175.81 202.33 175.75 202.1 175.62 201.9C175.5 201.71 175.33 201.55 175.12 201.44C174.91 201.34 174.68 201.29 174.45 201.32C174.22 201.34 174 201.42 173.81 201.56L155.41 212.2C155.16 212.36 154.94 212.55 154.75 212.77C154.55 212.99 154.39 213.23 154.26 213.49C154.13 213.76 154.04 214.04 153.99 214.33C153.94 214.61 153.93 214.91 153.96 215.2L154.59 219.72C154.59 219.95 154.66 220.18 154.78 220.37C154.91 220.57 155.08 220.72 155.29 220.83C155.49 220.93 155.72 220.97 155.95 220.96C156.18 220.94 156.4 220.86 156.59 220.72L175 210.06C175.24 209.9 175.47 209.71 175.66 209.49C175.85 209.28 176.01 209.03 176.14 208.77C176.27 208.51 176.36 208.23 176.41 207.95C176.46 207.66 176.48 207.37 176.45 207.08Z" />
			<path id="Layer" class="shp7" d="M204.89 190.68L204.25 186.16C204.25 185.93 204.19 185.7 204.06 185.5C203.94 185.31 203.77 185.15 203.56 185.04C203.35 184.94 203.12 184.89 202.89 184.92C202.66 184.94 202.44 185.02 202.25 185.16L183.85 195.8C183.6 195.96 183.38 196.15 183.19 196.37C182.99 196.59 182.83 196.83 182.7 197.09C182.57 197.36 182.48 197.64 182.43 197.93C182.38 198.21 182.37 198.51 182.4 198.8L183.03 203.32C183.03 203.55 183.1 203.78 183.22 203.97C183.35 204.17 183.52 204.32 183.73 204.43C183.93 204.53 184.16 204.57 184.39 204.56C184.62 204.54 184.84 204.46 185.03 204.32L203.43 193.7C203.68 193.54 203.9 193.35 204.1 193.13C204.29 192.91 204.46 192.66 204.59 192.4C204.71 192.13 204.81 191.85 204.86 191.56C204.91 191.27 204.92 190.97 204.89 190.68L204.89 190.68Z" />
			<path id="Layer" class="shp7" d="M233.33 174.28L232.69 169.76C232.69 169.53 232.62 169.3 232.5 169.11C232.37 168.91 232.2 168.76 231.99 168.65C231.79 168.55 231.56 168.51 231.33 168.52C231.1 168.54 230.88 168.62 230.69 168.76L212.29 179.4C212.04 179.56 211.82 179.75 211.63 179.97C211.43 180.19 211.27 180.43 211.14 180.69C211.01 180.96 210.92 181.24 210.87 181.53C210.82 181.81 210.81 182.11 210.84 182.4L211.47 186.92C211.47 187.15 211.53 187.38 211.66 187.58C211.78 187.77 211.95 187.93 212.16 188.04C212.37 188.14 212.6 188.19 212.83 188.16C213.06 188.14 213.28 188.06 213.47 187.92L231.87 177.3C232.12 177.14 232.34 176.95 232.54 176.73C232.73 176.51 232.9 176.26 233.03 176C233.15 175.73 233.25 175.45 233.3 175.16C233.35 174.87 233.36 174.57 233.33 174.28L233.33 174.28Z" />
			<path id="Layer" class="shp7" d="M261.77 157.89L261.13 153.36C261.13 153.13 261.06 152.9 260.94 152.71C260.81 152.51 260.64 152.36 260.43 152.25C260.23 152.15 260 152.11 259.77 152.12C259.54 152.14 259.32 152.22 259.13 152.36L240.73 163C240.48 163.16 240.26 163.35 240.07 163.57C239.87 163.79 239.71 164.03 239.58 164.29C239.45 164.56 239.36 164.84 239.31 165.13C239.26 165.41 239.25 165.71 239.28 166L239.91 170.52C239.91 170.75 239.97 170.98 240.1 171.18C240.22 171.37 240.39 171.53 240.6 171.64C240.81 171.74 241.04 171.79 241.27 171.76C241.5 171.74 241.72 171.66 241.91 171.52L260.31 160.91C260.56 160.75 260.78 160.56 260.98 160.34C261.17 160.12 261.33 159.87 261.46 159.6C261.59 159.34 261.68 159.06 261.73 158.77C261.79 158.48 261.8 158.18 261.77 157.89Z" />
			<path id="Layer" class="shp7" d="M290.21 141.49L289.57 136.96C289.57 136.73 289.5 136.5 289.38 136.31C289.25 136.11 289.08 135.96 288.87 135.85C288.67 135.75 288.44 135.71 288.21 135.72C287.98 135.74 287.76 135.82 287.57 135.96L269.17 146.6C268.92 146.76 268.7 146.95 268.51 147.17C268.31 147.39 268.15 147.63 268.02 147.9C267.89 148.16 267.8 148.44 267.75 148.73C267.7 149.02 267.69 149.31 267.72 149.6L268.35 154.12C268.35 154.35 268.41 154.58 268.54 154.78C268.66 154.97 268.83 155.13 269.04 155.24C269.25 155.34 269.48 155.39 269.71 155.36C269.94 155.34 270.16 155.26 270.35 155.12L288.75 144.51C289 144.35 289.22 144.16 289.42 143.94C289.61 143.72 289.77 143.47 289.9 143.2C290.03 142.94 290.12 142.66 290.17 142.37C290.23 142.08 290.24 141.78 290.21 141.49Z" />
			<path id="Layer" class="shp7" d="M318.65 125.09L318.01 120.57C318.01 120.34 317.95 120.11 317.82 119.91C317.7 119.72 317.53 119.56 317.32 119.45C317.11 119.35 316.88 119.3 316.65 119.33C316.42 119.35 316.2 119.43 316.01 119.57L297.61 130.2C297.36 130.36 297.14 130.55 296.95 130.77C296.75 130.99 296.59 131.23 296.46 131.5C296.33 131.76 296.24 132.04 296.19 132.33C296.14 132.62 296.13 132.91 296.16 133.2L296.79 137.73C296.79 137.96 296.86 138.19 296.98 138.38C297.11 138.58 297.28 138.73 297.49 138.84C297.69 138.94 297.92 138.98 298.15 138.97C298.38 138.95 298.6 138.87 298.79 138.73L317.19 128.11C317.44 127.95 317.66 127.76 317.86 127.54C318.05 127.32 318.22 127.07 318.34 126.81C318.47 126.54 318.56 126.26 318.62 125.97C318.67 125.68 318.68 125.38 318.65 125.09L318.65 125.09Z" />
			<path id="Layer" class="shp7" d="M347.08 108.69L346.45 104.17C346.45 103.94 346.39 103.71 346.26 103.51C346.14 103.32 345.97 103.16 345.76 103.05C345.55 102.95 345.32 102.9 345.09 102.93C344.86 102.95 344.64 103.03 344.45 103.17L326.06 113.79C325.81 113.95 325.59 114.14 325.39 114.36C325.2 114.58 325.04 114.82 324.91 115.08C324.78 115.35 324.69 115.63 324.64 115.92C324.59 116.2 324.58 116.5 324.61 116.79L325.24 121.31C325.24 121.54 325.31 121.77 325.43 121.96C325.56 122.16 325.73 122.31 325.94 122.42C326.14 122.52 326.37 122.56 326.6 122.55C326.83 122.53 327.05 122.45 327.24 122.31L345.64 111.69C345.89 111.53 346.11 111.34 346.3 111.12C346.49 110.9 346.66 110.66 346.78 110.39C346.91 110.13 347 109.85 347.05 109.56C347.1 109.27 347.11 108.98 347.08 108.69Z" />
			<path id="Layer" class="shp9" d="M155 180.38C154.95 179.72 155 179.06 155.13 178.42C155.27 177.77 155.49 177.15 155.79 176.56C156.09 175.97 156.47 175.43 156.92 174.95C157.37 174.47 157.88 174.05 158.44 173.7C160.68 172.41 162.77 173.3 163.12 175.7C163.17 176.36 163.12 177.02 162.99 177.67C162.86 178.31 162.63 178.94 162.33 179.52C162.03 180.11 161.65 180.65 161.2 181.13C160.75 181.62 160.23 182.04 159.67 182.38C157.44 183.67 155.35 182.78 155 180.38Z" />
			<path id="Layer" class="shp9" d="M183.47 164C183.42 163.34 183.47 162.68 183.6 162.04C183.73 161.39 183.95 160.76 184.26 160.18C184.56 159.59 184.94 159.05 185.39 158.57C185.84 158.08 186.35 157.66 186.91 157.32C189.15 156.02 191.24 156.91 191.59 159.32C191.64 159.98 191.59 160.64 191.46 161.28C191.32 161.93 191.1 162.55 190.8 163.14C190.5 163.72 190.12 164.27 189.67 164.75C189.22 165.23 188.7 165.65 188.14 165.99C185.9 167.24 183.81 166.35 183.47 164Z" />
			<path id="Layer" class="shp9" d="M211.88 147.55C211.83 146.89 211.88 146.23 212.01 145.59C212.14 144.94 212.36 144.31 212.67 143.73C212.97 143.14 213.35 142.6 213.8 142.12C214.25 141.63 214.76 141.21 215.32 140.87C217.56 139.57 219.66 140.46 220 142.87C220.05 143.53 220 144.19 219.87 144.83C219.74 145.48 219.52 146.1 219.21 146.69C218.91 147.27 218.53 147.81 218.08 148.3C217.63 148.78 217.12 149.2 216.56 149.54C214.32 150.83 212.22 149.94 211.88 147.55Z" />
			<path id="Layer" class="shp9" d="M268.74 114.72C268.69 114.06 268.74 113.4 268.87 112.76C269 112.11 269.22 111.48 269.53 110.9C269.83 110.31 270.21 109.77 270.66 109.29C271.11 108.8 271.62 108.38 272.18 108.04C274.42 106.75 276.51 107.64 276.85 110.04C276.9 110.7 276.86 111.36 276.72 112.01C276.59 112.65 276.37 113.28 276.07 113.86C275.77 114.45 275.39 114.99 274.94 115.48C274.49 115.96 273.97 116.38 273.41 116.72C271.17 118 269.08 117.12 268.74 114.72Z" />
			<path id="Layer" class="shp9" d="M297.2 98.3C297.15 97.64 297.2 96.98 297.33 96.33C297.46 95.69 297.68 95.06 297.98 94.48C298.28 93.89 298.67 93.35 299.11 92.87C299.56 92.38 300.08 91.96 300.64 91.62C302.88 90.32 304.97 91.21 305.32 93.62C305.37 94.28 305.32 94.94 305.19 95.59C305.06 96.23 304.83 96.86 304.53 97.44C304.23 98.03 303.85 98.57 303.4 99.05C302.95 99.54 302.43 99.96 301.87 100.3C299.63 101.58 297.54 100.69 297.2 98.3Z" />
			<path id="Layer" class="shp9" d="M325.61 81.89C325.56 81.23 325.61 80.57 325.74 79.93C325.87 79.28 326.09 78.65 326.4 78.07C326.7 77.48 327.08 76.94 327.53 76.46C327.98 75.97 328.49 75.55 329.05 75.21C331.29 73.91 333.39 74.8 333.73 77.21C333.78 77.87 333.73 78.53 333.6 79.17C333.47 79.82 333.25 80.44 332.94 81.03C332.64 81.61 332.26 82.15 331.81 82.64C331.36 83.12 330.85 83.54 330.29 83.88C328 85.17 326 84.28 325.61 81.89Z" />
			<path id="Layer" class="shp12" d="M152.06 153.36C149.06 151.61 146.12 151.36 143.88 152.65C141.64 153.94 140.4 156.58 140.4 160.09C140.4 160.5 140.42 160.91 140.46 161.32C140.49 161.73 140.54 162.13 140.6 162.54C140.66 162.94 140.73 163.35 140.82 163.75C140.9 164.15 141.01 164.55 141.12 164.94L142.9 163.94C142.82 163.63 142.75 163.31 142.69 163C142.63 162.68 142.58 162.36 142.53 162.04C142.49 161.72 142.46 161.4 142.44 161.08C142.42 160.76 142.4 160.43 142.4 160.11C142.4 157.35 143.28 155.32 144.88 154.4C145.04 154.31 145.21 154.23 145.39 154.16C145.56 154.09 145.74 154.03 145.92 153.99C146.1 153.94 146.28 153.91 146.47 153.89C146.66 153.87 146.84 153.86 147.03 153.86C147.38 153.88 147.73 153.92 148.08 153.98C148.43 154.04 148.77 154.12 149.11 154.23C149.45 154.33 149.78 154.46 150.1 154.61C150.42 154.76 150.73 154.92 151.03 155.11C156.35 158.19 160.68 165.69 160.68 171.83C160.68 171.94 160.68 172.05 160.68 172.16C160.67 172.27 160.67 172.38 160.66 172.49C160.66 172.6 160.65 172.7 160.64 172.81C160.63 172.92 160.62 173.03 160.61 173.14C160.6 173.57 160.53 174 160.42 174.42C160.31 174.84 160.15 175.25 159.94 175.63C159.73 176.01 159.48 176.36 159.19 176.69C158.9 177.01 158.57 177.29 158.21 177.54C157.98 177.66 157.75 177.77 157.5 177.85C157.26 177.93 157.01 177.99 156.75 178.03C156.5 178.08 156.24 178.09 155.98 178.09C155.72 178.09 155.46 178.07 155.21 178.02C155.16 178.18 155.12 178.34 155.08 178.51C155.04 178.67 155.02 178.84 155 179.01C154.97 179.18 154.96 179.34 154.96 179.51C154.95 179.68 154.95 179.85 154.96 180.02C155.05 180.03 155.15 180.05 155.24 180.06C155.33 180.07 155.43 180.08 155.52 180.09C155.62 180.09 155.71 180.1 155.81 180.1C155.9 180.11 156 180.11 156.09 180.11C156.36 180.11 156.64 180.1 156.91 180.07C157.18 180.03 157.45 179.98 157.72 179.91C157.98 179.84 158.24 179.76 158.49 179.65C158.75 179.55 158.99 179.43 159.23 179.29C159.68 179.01 160.09 178.68 160.46 178.31C160.83 177.94 161.16 177.53 161.45 177.09C161.73 176.65 161.96 176.17 162.14 175.68C162.31 175.18 162.44 174.67 162.5 174.15C162.53 173.96 162.56 173.77 162.59 173.58C162.61 173.39 162.63 173.2 162.65 173C162.67 172.81 162.68 172.62 162.69 172.43C162.7 172.24 162.7 172.04 162.7 171.85C162.71 165 157.93 156.75 152.06 153.36Z" />
			<path id="Layer" class="shp12" d="M180.52 136.94C177.52 135.19 174.58 134.94 172.34 136.23C170.1 137.52 168.86 140.16 168.86 143.67C168.86 144.08 168.88 144.49 168.92 144.9C168.95 145.31 169 145.71 169.06 146.12C169.12 146.52 169.19 146.93 169.28 147.33C169.36 147.73 169.47 148.13 169.58 148.52L171.36 147.52C171.28 147.21 171.21 146.89 171.15 146.58C171.09 146.26 171.04 145.94 170.99 145.62C170.95 145.3 170.92 144.98 170.9 144.66C170.88 144.34 170.86 144.01 170.86 143.69C170.86 140.93 171.74 138.9 173.34 137.98C173.5 137.89 173.67 137.81 173.85 137.74C174.02 137.67 174.2 137.61 174.38 137.57C174.56 137.52 174.74 137.49 174.93 137.47C175.12 137.45 175.3 137.44 175.49 137.44C175.84 137.46 176.19 137.5 176.54 137.56C176.89 137.62 177.23 137.7 177.57 137.81C177.91 137.91 178.24 138.04 178.56 138.19C178.88 138.34 179.19 138.5 179.49 138.69C184.81 141.77 189.14 149.27 189.14 155.41C189.14 155.52 189.14 155.63 189.14 155.74C189.13 155.85 189.13 155.96 189.12 156.07C189.12 156.18 189.11 156.28 189.1 156.39C189.09 156.5 189.08 156.61 189.07 156.72C189.06 157.15 188.99 157.58 188.88 158C188.77 158.42 188.61 158.83 188.4 159.21C188.19 159.59 187.94 159.94 187.65 160.27C187.36 160.59 187.03 160.87 186.67 161.12C186.44 161.24 186.21 161.35 185.96 161.43C185.72 161.51 185.47 161.57 185.21 161.61C184.96 161.66 184.7 161.67 184.44 161.67C184.18 161.67 183.92 161.65 183.67 161.6C183.62 161.76 183.58 161.92 183.54 162.09C183.5 162.25 183.48 162.42 183.46 162.59C183.43 162.76 183.42 162.92 183.42 163.09C183.41 163.26 183.41 163.43 183.42 163.6C183.51 163.61 183.61 163.63 183.7 163.64C183.79 163.65 183.89 163.66 183.98 163.67C184.08 163.67 184.17 163.68 184.27 163.68C184.36 163.69 184.46 163.69 184.55 163.69C184.82 163.69 185.1 163.68 185.37 163.65C185.64 163.61 185.91 163.56 186.18 163.49C186.44 163.42 186.7 163.34 186.95 163.23C187.21 163.13 187.45 163.01 187.69 162.87C188.14 162.59 188.55 162.26 188.92 161.89C189.29 161.52 189.62 161.11 189.91 160.67C190.19 160.23 190.42 159.75 190.6 159.26C190.77 158.76 190.9 158.25 190.96 157.73C190.99 157.54 191.02 157.35 191.05 157.16C191.07 156.97 191.09 156.78 191.11 156.58C191.13 156.39 191.14 156.2 191.15 156.01C191.16 155.82 191.16 155.62 191.16 155.43C191.17 148.61 186.39 140.33 180.52 136.94Z" />
			<path id="Layer" class="shp12" d="M208.93 120.53C205.93 118.78 202.99 118.53 200.75 119.82C198.51 121.11 197.27 123.75 197.27 127.26C197.27 127.67 197.29 128.08 197.33 128.49C197.36 128.9 197.41 129.3 197.47 129.71C197.53 130.11 197.6 130.52 197.69 130.92C197.77 131.32 197.88 131.72 197.99 132.11L199.77 131.11C199.69 130.8 199.62 130.48 199.56 130.17C199.5 129.85 199.45 129.53 199.4 129.21C199.36 128.89 199.33 128.57 199.31 128.25C199.29 127.93 199.27 127.6 199.27 127.28C199.27 124.52 200.15 122.49 201.75 121.57C201.91 121.48 202.08 121.4 202.26 121.33C202.43 121.26 202.61 121.2 202.79 121.16C202.97 121.11 203.15 121.08 203.34 121.06C203.53 121.04 203.71 121.03 203.9 121.03C204.25 121.05 204.6 121.09 204.95 121.15C205.3 121.21 205.64 121.29 205.98 121.4C206.32 121.5 206.65 121.63 206.97 121.78C207.29 121.93 207.6 122.09 207.9 122.28C213.22 125.36 217.55 132.86 217.55 139C217.55 139.11 217.55 139.22 217.55 139.33C217.54 139.44 217.54 139.55 217.53 139.66C217.53 139.77 217.52 139.87 217.51 139.98C217.5 140.09 217.49 140.2 217.48 140.31C217.47 140.74 217.4 141.17 217.29 141.59C217.18 142.01 217.02 142.42 216.81 142.8C216.6 143.18 216.35 143.53 216.06 143.86C215.77 144.18 215.44 144.46 215.08 144.71C214.85 144.83 214.62 144.94 214.37 145.02C214.13 145.1 213.88 145.16 213.62 145.2C213.37 145.25 213.11 145.26 212.85 145.26C212.59 145.26 212.33 145.24 212.08 145.19C212.03 145.35 211.99 145.51 211.95 145.68C211.91 145.84 211.89 146.01 211.87 146.18C211.84 146.35 211.83 146.51 211.83 146.68C211.82 146.85 211.82 147.02 211.83 147.19C211.92 147.2 212.02 147.22 212.11 147.23C212.2 147.24 212.3 147.25 212.39 147.26C212.49 147.26 212.58 147.27 212.68 147.27C212.77 147.28 212.87 147.28 212.96 147.28C213.23 147.28 213.51 147.27 213.78 147.24C214.05 147.2 214.32 147.15 214.59 147.08C214.85 147.01 215.11 146.93 215.36 146.82C215.62 146.72 215.86 146.6 216.1 146.46C216.55 146.18 216.96 145.85 217.33 145.48C217.7 145.11 218.03 144.7 218.32 144.26C218.6 143.82 218.83 143.34 219.01 142.85C219.18 142.35 219.31 141.84 219.37 141.32C219.4 141.13 219.43 140.94 219.46 140.75C219.48 140.56 219.5 140.37 219.52 140.17C219.54 139.98 219.55 139.79 219.56 139.6C219.57 139.41 219.57 139.21 219.57 139.02C219.58 132.2 214.8 123.92 208.93 120.53Z" />
			<path id="Layer" class="shp12" d="M265.8 87.75C262.8 86 259.86 85.75 257.62 87.04C255.38 88.33 254.14 90.97 254.14 94.48C254.14 94.89 254.16 95.3 254.2 95.71C254.23 96.12 254.28 96.52 254.34 96.93C254.4 97.33 254.47 97.74 254.56 98.14C254.64 98.54 254.75 98.94 254.86 99.33L256.64 98.33C256.56 98.02 256.49 97.7 256.43 97.39C256.37 97.07 256.32 96.75 256.27 96.43C256.23 96.11 256.2 95.79 256.18 95.47C256.16 95.15 256.14 94.82 256.14 94.5C256.14 91.74 257.02 89.71 258.62 88.79C258.78 88.7 258.95 88.62 259.13 88.55C259.3 88.48 259.48 88.42 259.66 88.38C259.84 88.33 260.02 88.3 260.21 88.28C260.4 88.26 260.58 88.25 260.77 88.25C261.12 88.27 261.47 88.31 261.82 88.37C262.17 88.43 262.51 88.51 262.85 88.62C263.19 88.72 263.52 88.85 263.84 89C264.16 89.15 264.47 89.31 264.77 89.5C270.09 92.58 274.42 100.08 274.42 106.22C274.42 106.33 274.42 106.44 274.42 106.55C274.41 106.66 274.41 106.77 274.4 106.88C274.4 106.99 274.39 107.09 274.38 107.2C274.37 107.31 274.36 107.42 274.35 107.53C274.34 107.96 274.27 108.39 274.16 108.81C274.05 109.23 273.89 109.64 273.68 110.02C273.47 110.4 273.22 110.75 272.93 111.08C272.64 111.4 272.31 111.68 271.95 111.93C271.72 112.05 271.49 112.16 271.24 112.24C271 112.32 270.75 112.38 270.49 112.42C270.24 112.47 269.98 112.48 269.72 112.48C269.46 112.48 269.2 112.46 268.95 112.41C268.9 112.57 268.86 112.73 268.82 112.9C268.78 113.06 268.76 113.23 268.74 113.4C268.71 113.57 268.7 113.73 268.7 113.9C268.69 114.07 268.69 114.24 268.7 114.41C268.79 114.42 268.89 114.44 268.98 114.45C269.07 114.46 269.17 114.47 269.26 114.48C269.36 114.48 269.45 114.49 269.55 114.49C269.64 114.5 269.74 114.5 269.83 114.5C270.1 114.5 270.38 114.49 270.65 114.46C270.92 114.42 271.19 114.37 271.46 114.3C271.72 114.23 271.98 114.15 272.23 114.04C272.49 113.94 272.73 113.82 272.97 113.68C273.42 113.4 273.83 113.07 274.2 112.7C274.57 112.33 274.9 111.92 275.19 111.48C275.47 111.04 275.7 110.56 275.88 110.07C276.05 109.57 276.18 109.06 276.24 108.54C276.27 108.35 276.3 108.16 276.33 107.97C276.35 107.78 276.37 107.59 276.39 107.39C276.41 107.2 276.42 107.01 276.43 106.82C276.44 106.63 276.44 106.43 276.44 106.24C276.45 99.42 271.67 91.14 265.8 87.75Z" />
			<path id="Layer" class="shp12" d="M294.26 71.32C291.26 69.57 288.32 69.32 286.08 70.61C283.84 71.9 282.6 74.54 282.6 78.05C282.6 78.46 282.62 78.87 282.66 79.28C282.69 79.69 282.74 80.09 282.8 80.5C282.86 80.9 282.93 81.31 283.02 81.71C283.1 82.11 283.21 82.51 283.32 82.9L285.1 81.9C285.02 81.59 284.95 81.27 284.89 80.96C284.83 80.64 284.78 80.32 284.73 80C284.69 79.68 284.66 79.36 284.64 79.04C284.62 78.72 284.6 78.39 284.6 78.07C284.6 75.31 285.48 73.28 287.08 72.36C287.24 72.27 287.41 72.19 287.59 72.12C287.76 72.05 287.94 71.99 288.12 71.95C288.3 71.9 288.48 71.87 288.67 71.85C288.86 71.83 289.04 71.82 289.23 71.82C289.58 71.84 289.93 71.88 290.28 71.94C290.63 72 290.97 72.08 291.31 72.19C291.65 72.29 291.98 72.42 292.3 72.57C292.62 72.72 292.93 72.88 293.23 73.07C298.55 76.15 302.88 83.65 302.88 89.79C302.88 89.9 302.88 90.01 302.88 90.12C302.87 90.23 302.87 90.34 302.86 90.45C302.86 90.56 302.85 90.66 302.84 90.77C302.83 90.88 302.82 90.99 302.81 91.1C302.8 91.53 302.73 91.96 302.62 92.38C302.51 92.8 302.35 93.21 302.14 93.59C301.93 93.97 301.68 94.32 301.39 94.65C301.1 94.97 300.77 95.25 300.41 95.5C300.18 95.62 299.95 95.73 299.7 95.81C299.46 95.89 299.21 95.95 298.95 95.99C298.7 96.04 298.44 96.05 298.18 96.05C297.92 96.05 297.66 96.03 297.41 95.98C297.36 96.14 297.32 96.3 297.28 96.47C297.24 96.63 297.22 96.8 297.2 96.97C297.17 97.14 297.16 97.3 297.16 97.47C297.15 97.64 297.15 97.81 297.16 97.98C297.25 97.99 297.35 98.01 297.44 98.02C297.53 98.03 297.63 98.04 297.72 98.05C297.82 98.05 297.91 98.06 298.01 98.06C298.1 98.07 298.2 98.07 298.29 98.07C298.56 98.07 298.84 98.06 299.11 98.03C299.38 97.99 299.65 97.94 299.92 97.87C300.18 97.8 300.44 97.72 300.69 97.61C300.95 97.51 301.19 97.39 301.43 97.25C301.88 96.97 302.29 96.64 302.66 96.27C303.03 95.9 303.36 95.49 303.65 95.05C303.93 94.61 304.16 94.13 304.34 93.64C304.51 93.14 304.64 92.63 304.7 92.11C304.73 91.92 304.76 91.73 304.79 91.54C304.81 91.35 304.83 91.16 304.85 90.96C304.87 90.77 304.88 90.58 304.89 90.39C304.9 90.2 304.9 90 304.9 89.81C304.91 83 300.13 74.71 294.26 71.32Z" />
			<path id="Layer" class="shp12" d="M322.67 54.91C319.67 53.16 316.73 52.91 314.49 54.2C312.25 55.49 311 58.13 311 61.64C311 62.05 311.02 62.46 311.06 62.87C311.09 63.28 311.14 63.68 311.2 64.09C311.26 64.49 311.33 64.9 311.42 65.3C311.5 65.7 311.61 66.1 311.72 66.49L313.5 65.49C313.42 65.18 313.35 64.86 313.29 64.55C313.23 64.23 313.18 63.91 313.13 63.59C313.09 63.27 313.06 62.95 313.04 62.63C313.02 62.31 313 61.98 313 61.66C313 58.9 313.88 56.87 315.48 55.95C315.64 55.86 315.81 55.78 315.99 55.71C316.16 55.64 316.34 55.58 316.52 55.54C316.7 55.49 316.88 55.46 317.07 55.44C317.26 55.42 317.44 55.41 317.63 55.41C317.98 55.43 318.33 55.47 318.68 55.53C319.03 55.59 319.37 55.67 319.71 55.78C320.05 55.88 320.38 56.01 320.7 56.16C321.02 56.31 321.33 56.47 321.63 56.66C326.95 59.74 331.28 67.24 331.28 73.38C331.28 73.49 331.28 73.6 331.28 73.71C331.27 73.82 331.27 73.93 331.26 74.04C331.26 74.15 331.25 74.25 331.24 74.36C331.23 74.47 331.22 74.58 331.21 74.69C331.2 75.12 331.13 75.55 331.02 75.97C330.91 76.39 330.75 76.8 330.54 77.18C330.33 77.56 330.08 77.91 329.79 78.24C329.5 78.56 329.17 78.84 328.81 79.09C328.58 79.21 328.35 79.32 328.1 79.4C327.86 79.48 327.61 79.54 327.35 79.58C327.1 79.63 326.84 79.64 326.58 79.64C326.32 79.64 326.06 79.62 325.81 79.57C325.76 79.73 325.72 79.89 325.68 80.06C325.64 80.22 325.62 80.39 325.6 80.56C325.57 80.73 325.56 80.89 325.56 81.06C325.55 81.23 325.55 81.4 325.56 81.57C325.65 81.58 325.75 81.6 325.84 81.61C325.93 81.62 326.03 81.63 326.12 81.64C326.22 81.64 326.31 81.65 326.41 81.65C326.5 81.66 326.6 81.66 326.69 81.66C326.96 81.66 327.24 81.65 327.51 81.62C327.78 81.58 328.05 81.53 328.32 81.46C328.58 81.39 328.84 81.31 329.09 81.2C329.35 81.1 329.59 80.98 329.83 80.84C330.28 80.56 330.69 80.23 331.06 79.86C331.43 79.49 331.76 79.08 332.05 78.64C332.33 78.2 332.56 77.72 332.74 77.23C332.91 76.73 333.04 76.22 333.1 75.7C333.13 75.51 333.16 75.32 333.19 75.13C333.21 74.94 333.23 74.75 333.25 74.55C333.27 74.36 333.28 74.17 333.29 73.98C333.3 73.79 333.3 73.59 333.3 73.4C333.32 66.58 328.54 58.3 322.67 54.91Z" />
		</g>
	</g>
	<g id="freepik--Device--inject-104">
		<g id="freepik--Clock--inject-104">
			<path id="Layer" class="shp13" d="M352.22 315L345.5 326.67C345.09 327.41 344.96 328.27 345.16 329.09C345.36 329.91 345.88 330.62 346.6 331.06C347.32 331.49 348.19 331.62 349.01 331.42C349.83 331.22 350.53 330.7 350.97 329.98L357.76 318.26C358.41 317.14 357.71 315.51 356.19 314.63C354.67 313.75 352.87 313.91 352.22 315Z" />
			<path id="Layer" class="shp13" d="M405.7 294.45L417.37 301.17C418.09 301.62 418.97 301.76 419.8 301.56C420.62 301.35 421.34 300.83 421.77 300.1C422.21 299.36 422.34 298.49 422.12 297.66C421.91 296.84 421.37 296.14 420.63 295.71L408.89 289C407.77 288.35 406.14 289.05 405.26 290.57C404.38 292.09 404.58 293.8 405.7 294.45Z" />
			<path id="Layer" class="shp14" d="M418.63 241.84L418.63 241.84L418.57 241.84L418.57 241.84L390.14 225.43L390.14 225.43L390.06 225.43L390.06 225.43C383.82 221.88 375.22 222.43 365.73 227.89C346.66 238.89 331.2 265.68 331.2 287.7C331.2 298.7 335.05 306.39 341.26 310.01L341.26 310.01L341.31 310.01L341.31 310.01L369.74 326.43L369.74 326.43L369.81 326.43L369.81 326.43C376.05 330 384.66 329.43 394.16 323.98C413.22 312.98 428.68 286.19 428.68 264.18C428.68 253.18 424.84 245.46 418.63 241.84Z" />
			<path id="Layer" class="shp3" d="M369.28 326.1L341.28 309.96L341.28 309.96L341.22 309.96C335.01 306.33 331.17 298.61 331.17 287.65C331.17 277.83 334.25 267.07 339.34 257.19L367.77 273.6C362.67 283.48 359.6 294.24 359.6 304.06C359.62 314.76 363.3 322.38 369.28 326.1Z" />
			<path id="Layer" class="shp10" d="M418.57 298.18C405.07 321.56 383.24 334.16 369.74 326.37C356.24 318.58 356.24 293.37 369.75 269.99C383.25 246.6 405.07 234 418.57 241.79C432.07 249.59 432.07 274.79 418.57 298.18Z" />
			<path id="Layer" class="shp8" d="M378.73 321.67C367.81 321.67 366.63 309.33 366.63 304.02C366.63 284.6 380.84 260.02 397.63 250.28C401.91 247.81 406.03 246.51 409.55 246.51C420.47 246.51 421.65 258.85 421.65 264.16C421.65 283.58 407.44 308.16 390.65 317.9C386.36 320.37 382.24 321.67 378.73 321.67Z" />
			<path id="Layer" class="shp15" d="M386.5 306.59C386.49 306.59 386.47 306.59 386.46 306.6C386.45 306.6 386.43 306.6 386.42 306.6C386.41 306.6 386.39 306.6 386.38 306.6C386.37 306.59 386.35 306.59 386.34 306.59C386.28 306.57 386.22 306.53 386.17 306.49C386.12 306.45 386.08 306.39 386.06 306.33C386.03 306.27 386.01 306.21 386.01 306.14C386 306.08 386.01 306.01 386.03 305.95L393.68 284.1C393.73 283.98 393.82 283.87 393.94 283.82C394.06 283.76 394.19 283.75 394.32 283.79C394.44 283.84 394.55 283.93 394.6 284.05C394.66 284.17 394.67 284.3 394.63 284.43L387 306.25C386.98 306.3 386.96 306.35 386.93 306.39C386.89 306.44 386.85 306.48 386.81 306.51C386.76 306.54 386.71 306.56 386.66 306.57C386.61 306.59 386.55 306.59 386.5 306.59L386.5 306.59Z" />
			<path id="Layer" class="shp16" d="M405.62 290.69C405.57 290.69 405.52 290.69 405.47 290.68C405.42 290.68 405.37 290.67 405.32 290.66C405.27 290.65 405.22 290.64 405.17 290.62C405.12 290.61 405.08 290.59 405.03 290.57L392.66 285.22L392.66 262.78C392.66 262.38 392.82 262 393.1 261.72C393.38 261.44 393.76 261.28 394.16 261.28C394.56 261.28 394.94 261.44 395.22 261.72C395.5 262 395.66 262.38 395.66 262.78L395.66 283.25L406.22 287.82C406.53 287.96 406.79 288.2 406.94 288.51C407.1 288.81 407.15 289.16 407.08 289.5C407.01 289.83 406.82 290.13 406.56 290.35C406.29 290.57 405.96 290.69 405.62 290.69Z" />
			<path id="Layer" class="shp14" d="M394.16 279.4C396.4 278.1 398.22 279.15 398.22 281.74C398.18 282.44 398.06 283.13 397.85 283.8C397.65 284.47 397.37 285.12 397.02 285.72C396.67 286.33 396.25 286.89 395.77 287.4C395.29 287.91 394.75 288.36 394.16 288.74C391.91 290.04 390.09 288.99 390.09 286.39C390.13 285.69 390.26 285 390.46 284.33C390.66 283.66 390.94 283.02 391.3 282.41C391.65 281.81 392.07 281.25 392.55 280.74C393.03 280.23 393.57 279.78 394.16 279.4L394.16 279.4Z" />
			<path id="Layer" class="shp13" d="M361.12 263.3C356.22 271.77 346.99 275.61 340.05 271.6C335.98 269.25 333.01 265.37 331.8 260.83C330.58 256.29 331.22 251.45 333.58 247.38C335.93 243.3 339.8 240.34 344.35 239.12C348.89 237.91 353.73 238.55 357.8 240.9C364.72 245 366 254.82 361.12 263.3Z" />
			<path id="Layer" class="shp16" d="M340.05 271.6C346.99 275.6 356.22 271.77 361.12 263.3C361.39 262.83 361.65 262.34 361.89 261.85C362.13 261.36 362.35 260.86 362.55 260.35C362.75 259.84 362.93 259.32 363.1 258.8C363.26 258.28 363.4 257.75 363.53 257.22C363.25 257.59 355.09 267.99 344.95 265.06C334.63 262.06 332.69 254.13 333.58 247.37C332.41 249.39 331.66 251.61 331.35 253.92C331.04 256.23 331.19 258.58 331.8 260.83C332.4 263.08 333.43 265.19 334.85 267.03C336.27 268.88 338.03 270.43 340.05 271.6Z" />
			<path id="Layer" class="shp14" d="M337.2 245.65L331.94 242.65C331.22 242.2 330.34 242.06 329.51 242.26C328.69 242.47 327.97 242.99 327.54 243.72C327.1 244.46 326.97 245.33 327.19 246.16C327.4 246.98 327.94 247.68 328.68 248.11L334 251.19C335.13 251.84 336.76 251.14 337.64 249.62C338.52 248.1 338.32 246.3 337.2 245.65Z" />
			<path id="Layer" class="shp14" d="M415.66 220.28L418.66 215.03C419.11 214.31 419.25 213.43 419.05 212.6C418.84 211.78 418.32 211.06 417.59 210.63C416.85 210.19 415.98 210.06 415.15 210.28C414.33 210.49 413.63 211.03 413.2 211.77L410.12 217.09C409.47 218.21 410.12 219.84 411.69 220.72C413.26 221.6 415 221.41 415.66 220.28Z" />
			<path id="Layer" class="shp13" d="M390.25 222.45C392.62 218.39 396.49 215.42 401.03 214.2C405.58 212.98 410.42 213.62 414.49 215.97C418.56 218.32 421.53 222.19 422.75 226.73C423.97 231.28 423.33 236.12 420.98 240.19L390.25 222.45Z" />
			<path id="Layer" class="shp16" d="M417.1 217.84C418.1 219.93 420.82 228.78 417.1 230.98C413.38 233.18 396.2 225.88 396.2 225.88L421 240.2C422.02 238.42 422.73 236.47 423.09 234.44C423.45 232.41 423.45 230.34 423.09 228.31C422.74 226.29 422.04 224.34 421.02 222.55C419.99 220.77 418.67 219.17 417.1 217.84Z" />
		</g>
	</g>
	<g id="freepik--Character--inject-104">
		<g id="freepik--character--inject-104">
			<path id="Layer" class="shp17" d="M304.87 268.51C287.17 244.72 281.35 242.07 278.02 241.26L283.86 257.26L296 272.83" />
			<path id="Layer" class="shp14" d="M276.29 241C276.29 241 280.05 239.86 285.49 245.19C290.93 250.52 297.49 258.29 297.49 258.29C297.49 258.29 295.72 264.64 290.19 266.61L282.19 258.29L276.29 241Z" />
			<path id="Layer" class="shp3" d="M276.29 241C276.29 241 280.05 239.86 285.49 245.19C290.93 250.52 297.49 258.29 297.49 258.29C297.49 258.29 295.72 264.64 290.19 266.61L282.19 258.29L276.29 241Z" />
			<path id="Layer" class="shp18" d="M279.74 227.84C274.27 229.13 268.8 225.75 267.51 220.28C266.22 214.81 269.6 209.35 275.07 208.06C280.54 206.77 286 210.15 287.29 215.61C288.58 221.08 285.2 226.55 279.74 227.84Z" />
			<path id="Layer" class="shp17" d="M260.24 402.12L253.08 402.12L253.08 389.87L260.24 389.87L260.24 402.12Z" />
			<path id="Layer" class="shp17" d="M276.42 393.22L283.57 393.47L283.93 380.5L276.77 380.25L276.42 393.22L276.42 393.22Z" />
			<path id="Layer" class="shp16" d="M253.54 292.74L253.54 342.25C253.37 344.25 251.92 347.62 251.54 355.99C251.06 366.26 252.63 394.52 252.63 394.52C252.63 394.52 255.98 397.85 260.72 394.52C260.72 394.52 267.07 354.18 268.36 344.01C269.48 335.13 271.36 311.01 271.36 311.01L275.64 347.34C275.64 347.34 274.47 354.01 274.22 358.71C273.97 363.41 276.28 388.54 276.28 388.54C276.86 388.9 277.48 389.18 278.13 389.38C278.78 389.58 279.46 389.7 280.14 389.72C280.82 389.75 281.5 389.69 282.16 389.53C282.83 389.38 283.47 389.15 284.07 388.83C284.67 388.51 288.97 351.18 289.71 346.93C290.45 342.68 287.02 292.73 287.02 292.73L253.54 292.74Z" />
			<path id="Layer" class="shp14" d="M260.42 243.29C260.17 243.32 259.92 243.37 259.67 243.41C259.42 243.46 259.18 243.51 258.93 243.57C258.68 243.62 258.44 243.69 258.19 243.76C257.95 243.83 257.71 243.9 257.47 243.98C255.47 244.75 254.6 247.17 254.13 249.3C254.03 249.75 253.95 250.2 253.87 250.65C253.8 251.1 253.74 251.55 253.69 252C253.64 252.46 253.6 252.91 253.58 253.37C253.55 253.83 253.54 254.28 253.54 254.74L253.54 292.74C258.54 298.2 276.06 300.74 287.02 292.74C287.02 292.74 286.81 259.18 286.02 253.66C284.59 244.08 280.02 240.66 275.4 241.02L264.35 242.6L260.42 243.29Z" />
			<path id="Layer" class="shp18" d="M259.84 225.16C259.84 225.16 261.49 232.89 262.15 234.16C262.26 234.35 262.38 234.53 262.53 234.7C262.67 234.87 262.82 235.03 262.99 235.17C263.17 235.31 263.35 235.43 263.54 235.54C263.74 235.64 263.94 235.73 264.15 235.8L264.03 230.35L259.84 225.16Z" />
			<path id="Layer" class="shp18" d="M261.91 214.07C261.62 214.04 261.33 214.04 261.05 214.07C260.76 214.1 260.48 214.17 260.2 214.26C259.93 214.36 259.67 214.48 259.42 214.64C259.18 214.79 258.95 214.97 258.75 215.18C257.4 216.57 258.16 220.91 259.84 225.18L262.95 225.53L261.91 214.07Z" />
			<path id="Layer" class="shp17" d="M263.88 225.51C263.25 225.89 262.37 224.69 261.6 223.89C260.83 223.09 258.33 221.99 257.08 224.62C255.83 227.25 258.18 230.85 260.15 231.47C263.55 232.53 264.06 230.35 264.06 230.35L264.32 242.61C264.69 243.43 265.17 244.2 265.73 244.9C266.29 245.6 266.94 246.23 267.66 246.78C268.37 247.32 269.16 247.78 269.98 248.13C270.81 248.48 271.68 248.73 272.57 248.87C278.57 249.68 277.35 244.72 275.37 242.28L275.37 238.55C275.75 238.61 276.13 238.66 276.51 238.7C276.89 238.74 277.27 238.77 277.65 238.79C278.04 238.81 278.42 238.82 278.8 238.82C279.18 238.82 279.57 238.81 279.95 238.79C282.45 238.4 284.02 236.43 284.78 233.73C286 229.38 286.46 225.88 285.43 217.33C284.29 207.97 273.43 207.87 267.52 211.57C261.61 215.27 263.88 225.51 263.88 225.51Z" />
			<path id="Layer" class="shp18" d="M263.88 226.56C263.56 226.56 262.37 224.56 261.6 223.89C260.53 222.89 261.91 214.07 261.91 214.07C261.77 213.69 261.68 213.29 261.65 212.89C261.62 212.49 261.65 212.08 261.74 211.69C261.83 211.29 261.98 210.91 262.17 210.56C262.37 210.2 262.62 209.88 262.91 209.6C264.37 207.98 266.83 207.81 271.02 207.15C273.22 206.8 276.56 206.15 278.76 205.78C281.38 205.29 283.55 204.78 285.4 206.38C285.76 206.69 286.07 207.06 286.33 207.46C286.58 207.87 286.76 208.31 286.88 208.78C286.99 209.24 287.03 209.72 287 210.2C286.97 210.68 286.87 211.15 286.69 211.59C286.64 211.69 286.59 211.79 286.54 211.89C286.48 211.99 286.42 212.09 286.36 212.18C286.3 212.27 286.23 212.36 286.16 212.45C286.09 212.54 286.02 212.63 285.94 212.71C285.41 213.3 285.32 214.1 284.57 214.34C284.57 214.34 282.98 215.78 279 216.26C278.08 216.33 277.17 216.38 276.25 216.4C275.33 216.43 274.41 216.43 273.5 216.41C272.58 216.4 271.66 216.36 270.74 216.3C269.83 216.24 268.91 216.15 268 216.05C266.84 215.89 266.53 216.26 265.91 219.31C265.38 222 264.93 226.54 263.88 226.56Z" />
			<path id="Layer" class="shp18" d="M261.92 214.76L258.16 212.76C258.28 212.51 258.45 212.28 258.66 212.09C258.87 211.91 259.11 211.77 259.38 211.68C259.64 211.59 259.92 211.56 260.2 211.58C260.48 211.61 260.75 211.69 261 211.82C261.25 211.96 261.47 212.14 261.64 212.36C261.82 212.59 261.96 212.84 262.04 213.11C262.13 213.38 262.16 213.66 262.14 213.95C262.12 214.23 262.04 214.5 261.92 214.76Z" />
			<path id="Layer" class="shp19" d="M275.36 238.55C275.36 238.55 269.79 237.43 267.84 236.39C267.56 236.24 267.28 236.07 267.02 235.89C266.76 235.7 266.52 235.49 266.29 235.26C266.06 235.04 265.85 234.8 265.66 234.54C265.46 234.28 265.29 234.01 265.14 233.73C265.21 234.01 265.3 234.29 265.4 234.57C265.51 234.84 265.62 235.11 265.75 235.38C265.88 235.64 266.02 235.9 266.17 236.15C266.33 236.4 266.49 236.64 266.67 236.87C268.1 238.69 275.36 240.04 275.36 240.04L275.36 238.55Z" />
			<path id="Layer" class="shp18" d="M274.38 225.14C274.36 225.59 274.08 225.98 273.66 226.15C273.24 226.31 272.77 226.2 272.45 225.88C272.14 225.55 272.05 225.08 272.23 224.66C272.41 224.25 272.81 223.98 273.26 223.98C273.41 223.98 273.56 224.01 273.7 224.07C273.83 224.13 273.96 224.22 274.06 224.33C274.17 224.43 274.25 224.56 274.3 224.7C274.36 224.84 274.38 224.99 274.38 225.14Z" />
			<path id="Layer" class="shp18" d="M273.19 220.93L270.8 222.24C270.72 222.08 270.67 221.9 270.65 221.72C270.63 221.54 270.65 221.35 270.7 221.18C270.75 221 270.84 220.84 270.95 220.7C271.06 220.55 271.2 220.43 271.36 220.34C271.52 220.25 271.69 220.2 271.87 220.19C272.05 220.17 272.23 220.19 272.4 220.24C272.57 220.3 272.73 220.39 272.87 220.51C273 220.62 273.11 220.77 273.19 220.93Z" />
			<path id="Layer" class="shp19" d="M274.86 231.84L277.41 232.84C277.36 233.01 277.27 233.17 277.15 233.31C277.03 233.44 276.89 233.55 276.72 233.63C276.56 233.71 276.39 233.75 276.21 233.76C276.03 233.77 275.85 233.74 275.68 233.68C275.5 233.61 275.34 233.51 275.21 233.39C275.07 233.26 274.96 233.1 274.88 232.93C274.81 232.76 274.77 232.58 274.76 232.39C274.76 232.2 274.79 232.01 274.86 231.84L274.86 231.84Z" />
			<path id="Layer" class="shp18" d="M284.34 221.86L282.16 220.18C282.26 220.03 282.39 219.91 282.55 219.81C282.7 219.72 282.87 219.65 283.05 219.62C283.23 219.6 283.41 219.61 283.58 219.65C283.76 219.7 283.92 219.78 284.06 219.89C284.2 220 284.33 220.14 284.42 220.3C284.51 220.46 284.57 220.64 284.59 220.82C284.62 221 284.61 221.19 284.57 221.36C284.52 221.54 284.45 221.71 284.34 221.86L284.34 221.86Z" />
			<path id="Layer" class="shp18" d="M283.67 224.83C283.67 224.98 283.65 225.13 283.59 225.27C283.54 225.41 283.45 225.53 283.35 225.64C283.25 225.75 283.12 225.83 282.98 225.89C282.85 225.95 282.7 225.98 282.55 225.98C282.08 226 281.64 225.72 281.45 225.29C281.26 224.86 281.35 224.35 281.68 224.01C282.01 223.67 282.51 223.57 282.95 223.75C283.39 223.93 283.67 224.36 283.67 224.83L283.67 224.83Z" />
			<path id="Layer" class="shp19" d="M277.62 222.74L277.99 229.46L281.5 228.27L277.62 222.74L277.62 222.74Z" />
			<path id="Layer" class="shp18" d="M260.23 398.59L260.23 397.59C260.92 397.88 262.51 403.96 265.35 406.59C267.61 408.65 270.69 411.02 271.47 413.32C272.25 415.62 267.18 417.03 265.07 416.65C262.62 416.22 258.37 414.49 257.31 412.89C256.25 411.29 255.74 408.89 254.87 407.76C254 406.63 252.01 405.28 251.54 403.92C251.5 403.6 251.49 403.29 251.49 402.97C251.49 402.65 251.5 402.33 251.54 402.02C251.57 401.7 251.62 401.39 251.69 401.08C251.76 400.77 251.85 400.46 251.95 400.16C252.28 398.9 252.64 397.51 253.07 397.63C253.07 397.78 253.07 398.41 253.07 398.41C253.32 398.61 253.59 398.78 253.88 398.93C254.16 399.09 254.45 399.21 254.76 399.32C255.06 399.42 255.37 399.5 255.69 399.55C256.01 399.6 256.33 399.62 256.65 399.62C257.7 399.6 260.24 399.39 260.23 398.59Z" />
			<path id="Layer" class="shp18" d="M283.64 391.26C284.02 391.26 284.32 391.8 285.14 392.69C285.45 393 285.76 393.29 286.1 393.57C286.43 393.85 286.77 394.11 287.12 394.37C287.47 394.62 287.84 394.85 288.21 395.07C288.58 395.3 288.96 395.5 289.35 395.69C292.03 397.04 297.24 399.1 299.6 400.16C301.07 400.83 301 402.61 299.48 403.62C297.96 404.63 294.28 405.36 289.87 404.37C287.46 403.84 284.33 401.61 282.35 401.73C280.37 401.85 276.66 401.83 275.2 400.82C273.74 399.81 274.32 397.66 274.73 395.82C275.18 393.82 275.83 390.71 276.5 390.82L276.5 391.46C277.37 392.76 281.75 393.29 283.64 392.34L283.64 391.26Z" />
			<path id="Layer" class="shp18" d="M271.36 311C272.28 310.71 273.19 310.38 274.08 309.99C274.97 309.61 275.83 309.18 276.67 308.7C277.51 308.22 278.33 307.69 279.11 307.12C279.89 306.55 280.64 305.94 281.36 305.29C282.08 304.64 279.44 308.89 273.72 312.24L273.84 331.75L271.36 311Z" />
			<path id="Layer" class="shp17" d="M257.79 310.7C256.61 309.7 255.87 308.41 254.09 307.1C253.77 306.9 253.46 306.68 253.17 306.45C252.87 306.21 252.59 305.96 252.32 305.69C252.06 305.43 251.81 305.14 251.58 304.84C251.35 304.54 251.13 304.23 250.94 303.91C249.94 302.23 248.94 296.63 248.64 291.31C248.6 289.83 248.61 288.34 248.7 286.86C248.78 285.38 248.92 283.91 249.13 282.44C249.33 280.97 249.6 279.51 249.93 278.07C250.27 276.62 250.66 275.19 251.11 273.78C253.54 267.07 258.47 258.07 260.11 254.27C261.75 250.47 260.87 248.56 259.4 246.63C257.68 244.37 254.49 244.36 251.48 249.51C250.48 251.3 249.53 253.11 248.63 254.95C247.73 256.8 246.88 258.66 246.08 260.55C245.28 262.44 244.54 264.35 243.85 266.28C243.16 268.21 242.52 270.15 241.94 272.12C241.55 273.59 241.22 275.07 240.95 276.57C240.68 278.06 240.47 279.57 240.33 281.08C240.18 282.6 240.1 284.11 240.08 285.63C240.06 287.15 240.1 288.67 240.21 290.19C240.54 295.82 241.77 300.12 243.35 305.53C243.79 307 243.74 308.2 244.24 311.11C244.27 311.41 244.32 311.72 244.37 312.02C244.43 312.32 244.49 312.61 244.57 312.91C244.65 313.2 244.73 313.5 244.83 313.79C244.93 314.07 245.04 314.36 245.16 314.64C245.33 314.98 245.51 315.31 245.7 315.63C245.9 315.96 246.1 316.28 246.31 316.59C246.53 316.9 246.75 317.2 246.99 317.49C247.23 317.79 247.47 318.07 247.73 318.35C248.05 318.7 248.4 319.03 248.77 319.33C249.13 319.64 249.52 319.92 249.92 320.17C250.33 320.42 250.75 320.65 251.18 320.85C251.62 321.04 252.06 321.21 252.52 321.35C252.77 321.42 253.03 321.48 253.28 321.53C253.54 321.57 253.8 321.6 254.06 321.62C254.33 321.63 254.59 321.63 254.85 321.62C255.11 321.6 255.37 321.57 255.63 321.52C255.89 321.47 256.14 321.4 256.39 321.31C256.63 321.22 256.87 321.11 257.09 320.98C257.32 320.84 257.53 320.69 257.73 320.52C257.93 320.35 258.11 320.16 258.28 319.96C258.31 319.92 258.35 319.88 258.38 319.83C258.41 319.79 258.43 319.74 258.46 319.69C258.48 319.64 258.5 319.6 258.52 319.54C258.54 319.49 258.55 319.44 258.56 319.39C258.56 319.3 258.55 319.21 258.53 319.12C258.51 319.02 258.49 318.94 258.45 318.85C258.42 318.77 258.37 318.68 258.32 318.61C258.27 318.53 258.21 318.46 258.15 318.39C257.79 317.97 257.45 317.55 257.1 317.13C256.76 316.7 256.42 316.27 256.08 315.84C255.75 315.41 255.42 314.97 255.1 314.53C254.78 314.09 254.46 313.64 254.15 313.19C253.23 311.64 252.79 310.41 253.15 310.48C253.51 310.55 253.98 311.48 255.32 312.32C256.66 313.16 258.32 313.13 258.71 312.38C259.1 311.63 259 311.72 257.79 310.7Z" />
			<path id="Layer" class="shp14" d="M258.28 243.75C255.42 243.92 252.82 244.56 249.96 250.23C247.1 255.9 242.61 266.52 242.61 266.52C243.15 267.49 243.82 268.37 244.59 269.16C245.37 269.95 246.25 270.63 247.21 271.18C248.16 271.73 249.19 272.16 250.26 272.43C251.33 272.71 252.43 272.85 253.54 272.83C254.65 272.81 260.12 259.09 261.19 255.47C262.26 251.85 263 246 258.28 243.75Z" />
			<path id="Layer" class="shp3" d="M258.28 243.75C255.42 243.92 252.82 244.56 249.96 250.23C247.1 255.9 242.61 266.52 242.61 266.52C243.15 267.49 243.82 268.37 244.59 269.16C245.37 269.95 246.25 270.63 247.21 271.18C248.16 271.73 249.19 272.16 250.26 272.43C251.33 272.71 252.43 272.85 253.54 272.83C254.65 272.81 260.12 259.09 261.19 255.47C262.26 251.85 263 246 258.28 243.75Z" />
			<path id="Layer" class="shp17" d="M296 272.83C295.35 274.73 289.11 280.52 284.52 282.36C284.25 282.45 283.97 282.53 283.69 282.58C283.41 282.64 283.13 282.68 282.84 282.69C282.56 282.71 282.27 282.71 281.99 282.68C281.7 282.66 281.42 282.62 281.14 282.56C280.87 282.45 280.6 282.35 280.32 282.26C280.04 282.18 279.76 282.11 279.47 282.05C279.19 282 278.9 281.96 278.61 281.93C278.32 281.91 278.03 281.9 277.74 281.9C276.4 282.02 275.04 282.28 273.69 282.44C273.62 282.44 273.55 282.45 273.48 282.46C273.41 282.47 273.34 282.48 273.27 282.5C273.21 282.51 273.14 282.53 273.07 282.56C273.01 282.58 272.94 282.61 272.88 282.64C272.06 283.09 272.53 283.78 273.18 284.03C273.44 284.12 273.71 284.21 273.97 284.3C274.24 284.38 274.5 284.47 274.77 284.54C275.04 284.62 275.31 284.69 275.58 284.75C275.85 284.82 276.12 284.88 276.39 284.94L276.39 285.23C275.69 285.47 274.99 285.69 274.28 285.89C273.56 286.08 272.84 286.25 272.12 286.4C271.4 286.54 270.67 286.67 269.93 286.76C269.2 286.86 268.47 286.93 267.73 286.97C267.6 286.97 267.47 286.98 267.34 287.01C267.21 287.03 267.09 287.06 266.96 287.1C266.84 287.14 266.72 287.2 266.61 287.26C266.49 287.32 266.38 287.39 266.28 287.47C266.2 287.56 266.12 287.67 266.06 287.78C266.01 287.89 265.96 288.01 265.93 288.14C265.9 288.26 265.89 288.39 265.89 288.51C265.9 288.64 265.92 288.77 265.95 288.89C265.98 289.01 266.03 289.13 266.07 289.25C266.12 289.36 266.17 289.48 266.23 289.59C266.29 289.7 266.35 289.81 266.42 289.92C266.49 290.02 266.57 290.12 266.65 290.22C266.95 290.67 267.29 291.09 267.67 291.48C268.05 291.86 268.46 292.21 268.91 292.51C269.36 292.81 269.83 293.07 270.33 293.28C270.83 293.5 271.34 293.66 271.87 293.77C272.41 293.81 272.95 293.83 273.49 293.81C274.03 293.8 274.57 293.76 275.11 293.69C275.64 293.62 276.17 293.53 276.7 293.41C277.23 293.29 277.75 293.14 278.26 292.97C279.25 292.69 280.23 292.38 281.2 292.04C281.91 291.78 282.61 291.51 283.31 291.22C284.01 290.94 284.7 290.64 285.39 290.33C286.08 290.03 286.76 289.71 287.44 289.38C288.11 289.05 288.78 288.7 289.45 288.35C290.87 287.6 292.27 286.81 293.65 285.97C295.02 285.13 296.36 284.25 297.68 283.33C298.99 282.4 300.28 281.43 301.53 280.42C302.79 279.42 304.01 278.37 305.19 277.28C308.07 274.47 307.36 271.77 304.94 268.51" />
			<path id="Layer" class="shp16" d="M283.85 282.54C283.85 282.54 284.85 282.17 285.99 284C287.13 285.83 287.85 289.17 286.42 289.83C286.67 289.84 286.91 289.83 287.15 289.78C287.39 289.73 287.63 289.65 287.85 289.54C288.07 289.43 288.27 289.29 288.46 289.13C288.64 288.97 288.8 288.78 288.94 288.58C289.09 287.93 289.14 287.27 289.1 286.6C289.06 285.94 288.93 285.28 288.71 284.66C288.49 284.03 288.18 283.44 287.79 282.9C287.4 282.36 286.94 281.87 286.42 281.46C286.18 281.47 285.94 281.49 285.71 281.54C285.48 281.59 285.25 281.66 285.03 281.76C284.81 281.85 284.6 281.96 284.4 282.09C284.21 282.22 284.02 282.37 283.85 282.54Z" />
			<path id="Layer" class="shp14" d="M289.14 283.21C289.58 283.95 289.52 284.88 289.01 285.57C288.49 286.25 287.61 286.56 286.77 286.34C285.94 286.12 285.33 285.42 285.21 284.57C285.1 283.71 285.51 282.88 286.26 282.45C286.5 282.31 286.76 282.22 287.04 282.18C287.31 282.15 287.59 282.16 287.86 282.24C288.12 282.31 288.38 282.43 288.6 282.6C288.82 282.76 289 282.97 289.14 283.21Z" />
			<path id="Layer" class="shp8" d="M288.65 283.49C288.97 284.04 288.93 284.72 288.54 285.22C288.16 285.73 287.51 285.95 286.9 285.78C286.29 285.62 285.84 285.1 285.75 284.47C285.67 283.85 285.98 283.23 286.53 282.92C286.71 282.82 286.9 282.75 287.1 282.73C287.31 282.7 287.51 282.71 287.71 282.77C287.91 282.82 288.09 282.91 288.25 283.03C288.41 283.16 288.55 283.31 288.65 283.49Z" />
		</g>
	</g>
</svg>